<?xml version="1.0"?>
<svg xmlns="http://www.w3.org/2000/svg" xmlns:xlink="http://www.w3.org/1999/xlink" version="1.1" id="Capa_1" x="0px" y="0px" viewBox="0 0 496.485 496.485" style="enable-background:new 0 0 496.485 496.485;" xml:space="preserve" width="512px" height="512px" class=""><g><circle style="fill:#57E4B2" cx="248.242" cy="248.242" r="248.242" data-original="#FDBE5E" class="" data-old_color="#57e4b2"/><rect x="112.485" y="257.552" style="fill:#FFFFFF;" width="269.964" height="86.885" data-original="#FFFFFF" class=""/><path style="fill:#193651;" d="M382.448,352.194H112.485c-4.655,0-7.758-3.103-7.758-7.758v-86.885c0-4.655,3.103-7.758,7.758-7.758  h269.964c4.655,0,7.758,3.103,7.758,7.758v86.885C390.206,348.315,387.103,352.194,382.448,352.194z M120.242,336.679h254.448  v-71.37H120.242V336.679z" data-original="#193651" class=""/><rect x="74.473" y="373.139" style="fill:#FFFFFF;" width="346.764" height="86.109" data-original="#FFFFFF" class=""/><g>
	<path style="fill:#193651;" d="M421.236,467.006H74.473c-4.655,0-7.758-3.103-7.758-7.758v-86.109c0-4.655,3.103-7.758,7.758-7.758   h346.764c4.655,0,7.758,3.103,7.758,7.758v86.109C428.994,463.903,425.115,467.006,421.236,467.006z M82.23,451.491h331.249   v-70.594H82.23V451.491z" data-original="#193651" class=""/>
	<path style="fill:#193651;" d="M465.455,496.485h-435.2c-4.655,0-7.758-3.103-7.758-7.758s3.103-7.758,7.758-7.758h435.2   c4.655,0,7.758,3.103,7.758,7.758S470.109,496.485,465.455,496.485z" data-original="#193651" class=""/>
</g><g>
	<rect x="118.691" y="380.121" style="fill:#D0D1D1;" width="30.255" height="72.921" data-original="#D0D1D1" class=""/>
	<rect x="193.939" y="380.121" style="fill:#D0D1D1;" width="30.255" height="72.921" data-original="#D0D1D1" class=""/>
	<rect x="268.412" y="380.121" style="fill:#D0D1D1;" width="30.255" height="72.921" data-original="#D0D1D1" class=""/>
	<rect x="343.661" y="380.121" style="fill:#D0D1D1;" width="30.255" height="72.921" data-original="#D0D1D1" class=""/>
	<rect x="157.479" y="264.533" style="fill:#D0D1D1;" width="30.255" height="72.921" data-original="#D0D1D1" class=""/>
	<rect x="232.727" y="264.533" style="fill:#D0D1D1;" width="30.255" height="72.921" data-original="#D0D1D1" class=""/>
	<rect x="307.2" y="264.533" style="fill:#D0D1D1;" width="30.255" height="72.921" data-original="#D0D1D1" class=""/>
</g><path style="fill:#E1E6E9;" d="M247.467,109.382C181.527,109.382,128,162.909,128,228.848h238.158  C366.933,162.909,313.406,109.382,247.467,109.382z" data-original="#E1E6E9" class=""/><path style="fill:#193651;" d="M366.933,235.83H128.776c-4.655,0-7.758-3.103-7.758-7.758c0-69.818,56.63-127.224,127.224-127.224  s127.224,56.63,127.224,127.224C374.691,232.727,370.812,235.83,366.933,235.83z M136.533,220.315h222.642  c-3.879-58.182-51.976-103.952-110.933-103.952S140.412,162.909,136.533,220.315z" data-original="#193651" class=""/><path style="fill:#FFFFFF;" d="M165.236,197.042c12.412-33.358,44.994-57.406,82.23-57.406s69.818,24.048,82.23,57.406H165.236z" data-original="#FFFFFF" class=""/><path style="fill:#5141AF" d="M247.467,13.188c0,16.291,0,33.358,0,49.648c27.152,18.618,55.079-18.618,82.23,0  c0-16.291,0-33.358,0-49.648C302.545-5.43,275.394,31.806,247.467,13.188z" data-original="#4EBE9F" class="active-path" data-old_color="#5C4AC9"/><path style="fill:#183651" d="M265.309,76.024c-7.758,0-14.739-2.327-21.721-6.982c-2.327-1.552-3.103-3.879-3.103-6.206V13.188  c0-3.103,1.552-5.43,3.879-6.982s5.43-0.776,7.758,0.776c9.309,6.982,20.945,3.879,34.133-0.776  c13.964-4.655,31.03-10.861,48.097,0.776c2.327,1.552,3.103,3.879,3.103,6.206v49.648c0,3.103-1.552,5.43-3.879,6.982  s-5.43,1.552-7.758-0.776c-9.309-6.982-20.945-3.879-34.133,0.776C283.152,72.921,274.618,76.024,265.309,76.024z M255.224,58.182  c8.533,3.879,19.394,0.776,31.03-3.103c10.861-3.879,23.273-7.758,35.685-4.655V17.842c-8.533-3.879-19.394-0.776-31.03,3.103  c-8.533,3.103-17.067,6.206-26.376,6.206c-3.103,0-6.206-0.776-9.309-1.552L255.224,58.182L255.224,58.182z" data-original="#183651" class=""/><path style="fill:#FFFFFF;" d="M273.842,17.842c-8.533,1.552-17.842,1.552-26.376-4.655v49.648  c8.533,6.206,17.842,6.206,26.376,4.655" data-original="#FFFFFF" class=""/><g>
	<path style="fill:#183651" d="M265.309,76.024c-6.206,0-13.964-1.552-21.721-6.982c-2.327-1.552-3.103-3.879-3.103-6.206V13.188   c0-3.103,1.552-5.43,3.879-6.982s5.43-0.776,7.758,0.776c6.206,3.879,11.636,4.655,20.17,3.103   c3.879-0.776,8.533,1.552,9.309,6.206c0.776,3.879-1.552,8.533-6.206,9.309c-5.43,0.776-12.412,2.327-20.17,0v33.358   c4.655,2.327,10.085,2.327,17.067,1.552c3.879-0.776,8.533,1.552,9.309,6.206c0.776,3.879-1.552,8.533-6.206,9.309   C272.291,75.248,269.188,76.024,265.309,76.024z" data-original="#183651" class=""/>
	<path style="fill:#183651" d="M247.467,117.139c-4.655,0-7.758-3.103-7.758-7.758V7.758c0-4.655,3.103-7.758,7.758-7.758   c4.655,0,7.758,3.103,7.758,7.758v101.624C255.224,113.261,252.121,117.139,247.467,117.139z" data-original="#183651" class=""/>
</g><rect x="112.485" y="228.073" style="fill:#E1E6E9;" width="269.964" height="29.479" data-original="#E1E6E9" class=""/><path style="fill:#193651;" d="M382.448,265.309H112.485c-4.655,0-7.758-3.103-7.758-7.758v-29.479c0-4.655,3.103-7.758,7.758-7.758  h269.964c4.655,0,7.758,3.103,7.758,7.758v29.479C390.206,262.206,387.103,265.309,382.448,265.309z M120.242,249.794h254.448  V235.83H120.242V249.794z" data-original="#193651" class=""/><rect x="44.994" y="459.249" style="fill:#E1E6E9;" width="405.721" height="29.479" data-original="#E1E6E9" class=""/><path style="fill:#193651;" d="M450.715,496.485H44.994c-4.655,0-7.758-3.103-7.758-7.758v-29.479c0-4.655,3.103-7.758,7.758-7.758  h405.721c4.655,0,7.758,3.103,7.758,7.758v29.479C458.473,493.382,454.594,496.485,450.715,496.485z M52.752,480.97h390.206v-13.964  H52.752V480.97z" data-original="#193651" class=""/><rect x="74.473" y="344.436" style="fill:#E1E6E9;" width="346.764" height="29.479" data-original="#E1E6E9" class=""/><g>
	<path style="fill:#193651;" d="M421.236,380.897H74.473c-4.655,0-7.758-3.103-7.758-7.758v-29.479c0-4.655,3.103-7.758,7.758-7.758   h346.764c4.655,0,7.758,3.103,7.758,7.758v29.479C428.994,377.794,425.115,380.897,421.236,380.897z M82.23,365.382h331.249   v-13.964H82.23V365.382z" data-original="#193651" class=""/>
	<path style="fill:#193651;" d="M390.206,235.83H105.503c-4.655,0-7.758-3.103-7.758-7.758c0-4.655,3.103-7.758,7.758-7.758h284.703   c4.655,0,7.758,3.103,7.758,7.758C397.964,232.727,394.085,235.83,390.206,235.83z" data-original="#193651" class=""/>
	<path style="fill:#193651;" d="M430.545,352.194H64.388c-4.655,0-7.758-3.103-7.758-7.758c0-4.655,3.103-7.758,7.758-7.758h366.158   c4.655,0,7.758,3.103,7.758,7.758C438.303,349.091,435.2,352.194,430.545,352.194z" data-original="#193651" class=""/>
	<rect x="205.576" y="169.115" style="fill:#193651;" width="15.515" height="15.515" data-original="#193651" class=""/>
	<rect x="239.709" y="169.115" style="fill:#193651;" width="15.515" height="15.515" data-original="#193651" class=""/>
	<rect x="273.842" y="169.115" style="fill:#193651;" width="15.515" height="15.515" data-original="#193651" class=""/>
</g></g> </svg>
