<?xml version="1.0"?>
<svg xmlns="http://www.w3.org/2000/svg" xmlns:xlink="http://www.w3.org/1999/xlink" version="1.1" id="Capa_1" x="0px" y="0px" viewBox="0 0 496.485 496.485" style="enable-background:new 0 0 496.485 496.485;" xml:space="preserve" width="512px" height="512px" class=""><g><circle style="fill:#57E4B2" cx="248.242" cy="248.242" r="248.242" data-original="#F16050" class="active-path" data-old_color="#57e4b2"/><rect x="85.333" y="73.697" style="fill:#FFFFFF;" width="325.818" height="415.03" data-original="#FFFFFF"/><g>
	<path style="fill:#183651;" d="M411.152,496.485H85.333c-4.655,0-7.758-3.103-7.758-7.758V73.697c0-4.655,3.103-7.758,7.758-7.758   h325.818c4.655,0,7.758,3.103,7.758,7.758v415.03C418.909,493.382,415.806,496.485,411.152,496.485z M93.091,480.97h310.303V81.455   H93.091V480.97z" data-original="#183651"/>
	<path style="fill:#183651;" d="M427.442,496.485h-358.4c-4.655,0-7.758-3.103-7.758-7.758s3.103-7.758,7.758-7.758h357.624   c4.655,0,7.758,3.103,7.758,7.758S431.321,496.485,427.442,496.485z" data-original="#183651"/>
</g><rect x="129.552" y="30.255" style="fill:#FDBE5E;" width="237.382" height="43.442" data-original="#FDBE5E"/><g>
	<path style="fill:#183651;" d="M366.933,81.455H129.552c-4.655,0-7.758-3.103-7.758-7.758V30.255c0-4.655,3.103-7.758,7.758-7.758   h237.382c4.655,0,7.758,3.103,7.758,7.758v43.442C374.691,77.576,370.812,81.455,366.933,81.455z M137.309,65.939h221.867V38.012   H137.309V65.939z" data-original="#183651"/>
	<path style="fill:#183651;" d="M381.673,38.012H114.812c-4.655,0-7.758-3.103-7.758-7.758s3.103-7.758,7.758-7.758h266.861   c4.655,0,7.758,3.103,7.758,7.758S385.552,38.012,381.673,38.012z" data-original="#183651"/>
</g><rect x="174.701" y="394.496" style="fill:#E1E6E9;" width="145.842" height="93.867" data-original="#E1E6E9"/><g>
	<path style="fill:#183651;" d="M321.164,496.485H175.321c-4.655,0-7.758-3.103-7.758-7.758v-93.867   c0-4.655,3.103-7.758,7.758-7.758h145.842c4.655,0,7.758,3.103,7.758,7.758v93.867   C328.921,493.382,325.042,496.485,321.164,496.485z M183.079,480.97h130.327v-78.352H183.079V480.97z" data-original="#183651"/>
	<path style="fill:#183651;" d="M334.352,402.618H162.133c-4.655,0-7.758-3.103-7.758-7.758s3.103-7.758,7.758-7.758h172.218   c4.655,0,7.758,3.103,7.758,7.758S338.23,402.618,334.352,402.618z" data-original="#183651"/>
	<path style="fill:#183651;" d="M248.242,496.485c-4.655,0-7.758-3.103-7.758-7.758v-93.867c0-4.655,3.103-7.758,7.758-7.758   s7.758,3.103,7.758,7.758v93.867C256,493.382,252.121,496.485,248.242,496.485z" data-original="#183651"/>
</g><polygon style="fill:#57E4B2" points="273.842,121.018 256.776,121.018 256.776,103.176 239.709,103.176 239.709,121.018   221.867,121.018 221.867,138.085 239.709,138.085 239.709,155.152 256.776,155.152 256.776,138.085 273.842,138.085 " data-original="#F16050" class="active-path" data-old_color="#57e4b2"/><g>
	<rect x="114.812" y="176.873" style="fill:#2BA1DB" width="44.218" height="44.218" data-original="#2BA1DB" class=""/>
	<rect x="189.285" y="176.873" style="fill:#2BA1DB" width="44.218" height="44.218" data-original="#2BA1DB" class=""/>
	<rect x="262.982" y="176.873" style="fill:#2BA1DB" width="44.218" height="44.218" data-original="#2BA1DB" class=""/>
	<rect x="337.455" y="176.873" style="fill:#2BA1DB" width="44.218" height="44.218" data-original="#2BA1DB" class=""/>
	<rect x="114.812" y="242.812" style="fill:#2BA1DB" width="44.218" height="44.218" data-original="#2BA1DB" class=""/>
	<rect x="189.285" y="242.812" style="fill:#2BA1DB" width="44.218" height="44.218" data-original="#2BA1DB" class=""/>
	<rect x="262.982" y="242.812" style="fill:#2BA1DB" width="44.218" height="44.218" data-original="#2BA1DB" class=""/>
	<rect x="337.455" y="242.812" style="fill:#2BA1DB" width="44.218" height="44.218" data-original="#2BA1DB" class=""/>
	<rect x="114.812" y="307.976" style="fill:#2BA1DB" width="44.218" height="44.218" data-original="#2BA1DB" class=""/>
	<rect x="189.285" y="307.976" style="fill:#2BA1DB" width="44.218" height="44.218" data-original="#2BA1DB" class=""/>
	<rect x="262.982" y="307.976" style="fill:#2BA1DB" width="44.218" height="44.218" data-original="#2BA1DB" class=""/>
	<rect x="337.455" y="307.976" style="fill:#2BA1DB" width="44.218" height="44.218" data-original="#2BA1DB" class=""/>
</g></g> </svg>
