<?xml version="1.0"?>
<svg xmlns="http://www.w3.org/2000/svg" xmlns:xlink="http://www.w3.org/1999/xlink" version="1.1" id="Capa_1" x="0px" y="0px" viewBox="0 0 504.242 504.242" style="enable-background:new 0 0 504.242 504.242;" xml:space="preserve" width="512px" height="512px" class=""><g><circle style="fill:#57E4B2" cx="252.121" cy="248.242" r="248.242" data-original="#FDBE5E" class="active-path" data-old_color="#57e4b2"/><polygon style="fill:#E1E6E9;" points="284.703,145.842 284.703,226.521 144.291,145.842 144.291,226.521 11.636,145.842   11.636,496.485 425.115,496.485 425.115,226.521 " data-original="#E1E6E9"/><path style="fill:#193651;" d="M425.115,504.242H11.636c-4.655,0-7.758-3.103-7.758-7.758V145.842c0-3.103,1.552-5.43,3.879-6.982  c2.327-1.552,5.43-1.552,7.758,0l121.018,73.697v-67.491c0-3.103,1.552-5.43,3.879-6.982s5.43-1.552,7.758,0l128.776,75.248v-67.491  c0-3.103,1.552-5.43,3.879-6.982c2.327-1.552,5.43-1.552,7.758,0l140.412,81.455c2.327,1.552,3.879,3.879,3.879,6.982v269.964  C432.873,501.139,429.77,504.242,425.115,504.242z M19.394,488.727h397.964V231.176L292.461,159.03v67.491  c0,3.103-1.552,5.43-3.879,6.982c-2.327,1.552-5.43,1.552-7.758,0L152.048,159.03v67.491c0,3.103-1.552,5.43-3.879,6.982  c-2.327,1.552-5.43,1.552-7.758,0L19.394,159.806V488.727z" data-original="#193651"/><polygon style="fill:#FFFFFF;" points="42.667,465.455 42.667,199.37 175.321,280.824 175.321,199.37 315.733,280.824   315.733,199.37 394.085,244.364 394.085,465.455 " data-original="#FFFFFF"/><polygon style="fill:#D0D1D1;" points="409.6,15.515 386.327,496.485 492.606,496.485 469.333,15.515 " data-original="#D0D1D1"/><g>
	<path style="fill:#193651;" d="M492.606,504.242H386.327c-2.327,0-3.879-0.776-5.43-2.327c-1.552-1.551-2.327-3.879-2.327-5.43   l23.273-480.97c0-3.879,3.879-7.758,7.758-7.758h59.733c3.879,0,7.758,3.103,7.758,7.758l23.273,480.97   c0,2.327-0.776,3.879-2.327,5.43C496.485,503.467,494.933,504.242,492.606,504.242z M394.861,488.727h89.988L461.576,23.273   h-44.218L394.861,488.727z" data-original="#193651"/>
	<path style="fill:#193651;" d="M477.091,23.273h-75.248c-4.655,0-7.758-3.103-7.758-7.758s3.103-7.758,7.758-7.758h75.248   c4.655,0,7.758,3.103,7.758,7.758S481.745,23.273,477.091,23.273z" data-original="#193651"/>
</g><g>
	<rect x="74.473" y="385.552" style="fill:#2BA1DB" width="48.097" height="48.097" data-original="#2BA1DB" class=""/>
	<rect x="74.473" y="309.527" style="fill:#2BA1DB" width="48.097" height="48.097" data-original="#2BA1DB" class=""/>
	<rect x="153.6" y="385.552" style="fill:#2BA1DB" width="48.097" height="48.097" data-original="#2BA1DB" class=""/>
	<rect x="153.6" y="309.527" style="fill:#2BA1DB" width="48.097" height="48.097" data-original="#2BA1DB" class=""/>
	<rect x="232.727" y="385.552" style="fill:#2BA1DB" width="48.097" height="48.097" data-original="#2BA1DB" class=""/>
	<rect x="232.727" y="309.527" style="fill:#2BA1DB" width="48.097" height="48.097" data-original="#2BA1DB" class=""/>
	<rect x="311.855" y="385.552" style="fill:#2BA1DB" width="48.097" height="48.097" data-original="#2BA1DB" class=""/>
	<rect x="311.855" y="309.527" style="fill:#2BA1DB" width="48.097" height="48.097" data-original="#2BA1DB" class=""/>
</g><g>
	<rect x="432.097" y="213.333" style="fill:#193651;" width="15.515" height="15.515" data-original="#193651"/>
	<rect x="432.097" y="277.721" style="fill:#193651;" width="15.515" height="15.515" data-original="#193651"/>
	<rect x="432.097" y="342.885" style="fill:#193651;" width="15.515" height="15.515" data-original="#193651"/>
</g></g> </svg>
