<?xml version="1.0"?>
<svg xmlns="http://www.w3.org/2000/svg" xmlns:xlink="http://www.w3.org/1999/xlink" version="1.1" id="Capa_1" x="0px" y="0px" viewBox="0 0 498.036 498.036" style="enable-background:new 0 0 498.036 498.036;" xml:space="preserve" width="512px" height="512px" class=""><g><circle style="fill:#57E4B2" cx="249.794" cy="249.018" r="248.242" data-original="#FDBE5E" class="active-path" data-old_color="#57e4b2"/><rect x="123.345" y="242.036" style="fill:#E1E6E9;" width="251.345" height="247.467" data-original="#E1E6E9" class=""/><path style="fill:#193651;" d="M374.691,497.261H123.345c-4.655,0-7.758-3.103-7.758-7.758V242.036c0-4.655,3.103-7.758,7.758-7.758  h251.345c4.655,0,7.758,3.103,7.758,7.758v247.467C382.449,494.158,378.57,497.261,374.691,497.261z M131.103,481.745h235.83  V249.794h-235.83V481.745z" data-original="#193651" class=""/><rect x="154.376" y="273.067" style="fill:#FFFFFF;" width="189.285" height="185.406" data-original="#FFFFFF" class=""/><path style="fill:#193651;" d="M490.279,497.261H7.758c-4.655,0-7.758-3.103-7.758-7.758c0-4.655,3.103-7.758,7.758-7.758h482.521  c4.655,0,7.758,3.103,7.758,7.758C498.036,494.158,494.933,497.261,490.279,497.261z" data-original="#193651" class=""/><rect x="374.691" y="287.806" style="fill:#FFFFFF;" width="103.951" height="201.697" data-original="#FFFFFF" class=""/><path style="fill:#193651;" d="M478.642,497.261H374.691c-4.655,0-7.758-3.103-7.758-7.758V287.806c0-4.655,3.103-7.758,7.758-7.758  h103.952c4.655,0,7.758,3.103,7.758,7.758v201.697C486.4,494.158,482.521,497.261,478.642,497.261z M382.449,481.745h88.436V295.564  h-88.436V481.745z" data-original="#193651" class=""/><rect x="19.394" y="287.806" style="fill:#FFFFFF;" width="103.952" height="201.697" data-original="#FFFFFF" class=""/><path style="fill:#193651;" d="M123.345,497.261H19.394c-4.655,0-7.758-3.103-7.758-7.758V287.806c0-4.655,3.103-7.758,7.758-7.758  h103.952c4.655,0,7.758,3.103,7.758,7.758v201.697C131.103,494.158,128,497.261,123.345,497.261z M27.152,481.745h88.436V295.564  H27.152V481.745z" data-original="#193651" class=""/><polygon style="fill:#F16050;" points="392.533,242.036 249.018,117.139 105.503,242.036 " data-original="#F16050" class=""/><path style="fill:#193651;" d="M392.533,249.794h-287.03c-3.103,0-6.206-2.327-6.982-4.655c-0.776-3.103,0-6.206,2.327-8.533  l143.515-124.897c3.103-2.327,6.982-2.327,10.085,0l143.515,124.897c2.327,2.327,3.103,5.43,2.327,8.533  C398.739,248.242,395.636,249.794,392.533,249.794z M126.448,234.279h245.915L249.018,127.224L126.448,234.279z" data-original="#193651" class=""/><g>
	<polygon style="fill:#FFFFFF;" points="188.509,211.006 249.018,158.255 309.527,211.006  " data-original="#FFFFFF" class=""/>
	<rect x="193.939" y="388.655" style="fill:#FFFFFF;" width="110.158" height="100.848" data-original="#FFFFFF" class=""/>
</g><g>
	<path style="fill:#193651;" d="M304.097,497.261H193.939c-4.655,0-7.758-3.103-7.758-7.758V388.655   c0-4.655,3.103-7.758,7.758-7.758h110.158c4.655,0,7.758,3.103,7.758,7.758v100.849   C311.855,494.158,308.752,497.261,304.097,497.261z M201.697,481.745h94.642v-85.333h-94.642V481.745z" data-original="#193651" class=""/>
	<path style="fill:#193651;" d="M249.018,497.261c-4.655,0-7.758-3.103-7.758-7.758V388.655c0-4.655,3.103-7.758,7.758-7.758   c4.655,0,7.758,3.103,7.758,7.758v100.849C256.776,494.158,253.673,497.261,249.018,497.261z" data-original="#193651" class=""/>
</g><g>
	<rect x="405.721" y="318.836" style="fill:#2BA1DB" width="41.891" height="30.255" data-original="#2BA1DB" class=""/>
	<rect x="405.721" y="373.139" style="fill:#2BA1DB" width="41.891" height="30.255" data-original="#2BA1DB" class=""/>
	<rect x="405.721" y="428.218" style="fill:#2BA1DB" width="41.891" height="30.255" data-original="#2BA1DB" class=""/>
	<rect x="50.424" y="318.836" style="fill:#2BA1DB" width="41.891" height="30.255" data-original="#2BA1DB" class=""/>
	<rect x="50.424" y="373.139" style="fill:#2BA1DB" width="41.891" height="30.255" data-original="#2BA1DB" class=""/>
	<rect x="50.424" y="428.218" style="fill:#2BA1DB" width="41.891" height="30.255" data-original="#2BA1DB" class=""/>
</g><path style="fill:#193651;" d="M249.018,124.897c-4.655,0-7.758-3.103-7.758-7.758V8.533c0-4.655,3.103-7.758,7.758-7.758  c4.655,0,7.758,3.103,7.758,7.758v108.606C256.776,121.794,253.673,124.897,249.018,124.897z" data-original="#193651" class=""/><rect x="249.018" y="8.533" style="fill:#E1E6E9;" width="94.642" height="61.285" data-original="#E1E6E9" class=""/><g>
	<path style="fill:#193651;" d="M343.661,77.576h-94.642c-4.655,0-7.758-3.103-7.758-7.758V8.533c0-4.655,3.103-7.758,7.758-7.758   h94.642c4.655,0,7.758,3.103,7.758,7.758v61.285C351.418,74.473,347.539,77.576,343.661,77.576z M256.776,62.061h79.127v-45.77   h-79.127V62.061z" data-original="#193651" class=""/>
	<rect x="175.321" y="296.339" style="fill:#193651;" width="15.515" height="15.515" data-original="#193651" class=""/>
	<rect x="219.539" y="296.339" style="fill:#193651;" width="15.515" height="15.515" data-original="#193651" class=""/>
	<rect x="262.982" y="296.339" style="fill:#193651;" width="15.515" height="15.515" data-original="#193651" class=""/>
	<rect x="307.2" y="296.339" style="fill:#193651;" width="15.515" height="15.515" data-original="#193651" class=""/>
	<rect x="175.321" y="327.37" style="fill:#193651;" width="15.515" height="15.515" data-original="#193651" class=""/>
	<rect x="219.539" y="327.37" style="fill:#193651;" width="15.515" height="15.515" data-original="#193651" class=""/>
	<rect x="262.982" y="327.37" style="fill:#193651;" width="15.515" height="15.515" data-original="#193651" class=""/>
	<rect x="307.2" y="327.37" style="fill:#193651;" width="15.515" height="15.515" data-original="#193651" class=""/>
</g></g> </svg>
