<svg id="svg" version="1.1" width="400" height="84.72352389878164" xmlns="http://www.w3.org/2000/svg" xmlns:xlink="http://www.w3.org/1999/xlink" style="display: block;"><g id="svgg"><path id="path0" d="M0.000 42.333 L 0.000 84.667 200.000 84.667 L 400.000 84.667 400.000 42.333 L 400.000 0.000 200.000 0.000 L 0.000 0.000 0.000 42.333 M229.167 14.084 C 229.854 14.470,230.942 15.083,231.583 15.447 C 232.225 15.811,233.387 16.470,234.167 16.912 C 234.946 17.353,236.071 17.990,236.667 18.328 C 237.262 18.665,238.425 19.321,239.250 19.785 C 240.075 20.249,242.100 21.398,243.750 22.339 C 247.314 24.371,248.926 25.283,250.833 26.345 L 252.250 27.134 252.293 41.316 L 252.335 55.498 251.376 56.089 C 250.848 56.414,249.592 57.164,248.583 57.756 C 247.575 58.348,246.375 59.061,245.917 59.341 C 245.458 59.620,244.033 60.469,242.750 61.227 C 241.467 61.986,239.179 63.341,237.667 64.238 C 236.154 65.135,234.204 66.286,233.333 66.795 C 232.463 67.304,231.487 67.885,231.167 68.084 C 230.846 68.284,229.950 68.807,229.177 69.245 L 227.770 70.042 226.760 69.492 C 226.205 69.189,225.300 68.667,224.750 68.331 C 224.200 67.996,222.925 67.248,221.917 66.669 C 220.908 66.090,219.821 65.453,219.500 65.253 C 219.179 65.053,218.167 64.454,217.250 63.922 C 216.333 63.389,215.171 62.714,214.667 62.420 C 214.162 62.126,213.037 61.471,212.167 60.964 C 209.010 59.125,205.550 57.090,204.000 56.162 L 202.417 55.213 202.373 53.232 C 202.144 42.930,201.884 27.226,201.940 27.132 C 201.979 27.067,202.590 26.684,203.297 26.282 C 204.005 25.879,205.446 25.028,206.500 24.390 C 207.554 23.752,209.167 22.792,210.083 22.257 C 211.000 21.721,211.938 21.156,212.167 21.001 C 212.396 20.846,213.108 20.419,213.750 20.052 C 214.392 19.685,215.292 19.153,215.750 18.870 C 216.208 18.587,218.792 17.040,221.491 15.432 L 226.399 12.508 227.158 12.946 C 227.575 13.186,228.479 13.699,229.167 14.084 M10.500 26.000 L 10.500 37.000 24.500 37.000 L 38.500 37.000 38.500 26.000 L 38.500 15.000 41.001 15.000 L 43.501 15.000 43.459 40.208 L 43.417 65.417 41.000 65.417 L 38.583 65.417 38.541 53.542 L 38.498 41.667 24.499 41.667 L 10.500 41.667 10.500 53.588 L 10.500 65.509 8.125 65.463 L 5.750 65.417 5.708 40.208 L 5.666 15.000 8.083 15.000 L 10.500 15.000 10.500 26.000 M88.167 17.167 L 88.167 19.333 75.083 19.333 L 62.000 19.333 62.000 28.167 L 62.000 37.000 74.042 37.003 C 80.665 37.004,86.179 37.066,86.297 37.141 C 86.457 37.242,86.499 37.819,86.464 39.430 L 86.417 41.583 74.208 41.626 L 62.000 41.669 62.000 51.333 L 62.000 60.998 75.625 61.041 L 89.250 61.083 89.250 63.250 L 89.250 65.417 73.208 65.459 L 57.167 65.502 57.167 40.251 L 57.167 15.000 72.667 15.000 L 88.167 15.000 88.167 17.167 M102.500 18.625 C 103.905 20.619,105.248 22.512,105.485 22.832 C 105.723 23.152,106.417 24.127,107.028 24.998 C 107.639 25.870,108.357 26.883,108.623 27.250 C 108.888 27.617,109.846 28.967,110.751 30.250 C 113.639 34.344,114.193 35.083,114.373 35.083 C 114.470 35.083,115.045 34.367,115.650 33.491 C 116.255 32.616,117.500 30.823,118.417 29.507 C 120.239 26.893,120.207 26.938,123.660 22.000 C 126.422 18.050,127.365 16.695,128.039 15.708 L 128.524 15.000 131.438 15.000 C 133.725 15.000,134.326 15.045,134.230 15.208 C 134.103 15.423,133.718 15.966,132.664 17.417 C 131.614 18.862,123.428 30.326,123.167 30.718 C 123.029 30.924,122.354 31.865,121.667 32.810 C 120.979 33.755,120.307 34.690,120.173 34.889 C 120.038 35.087,119.370 36.034,118.686 36.992 C 117.178 39.108,117.153 38.669,118.919 41.167 C 119.730 42.313,120.815 43.850,121.331 44.583 C 121.847 45.317,122.561 46.329,122.918 46.833 C 123.276 47.337,123.946 48.286,124.409 48.941 C 124.871 49.596,125.882 51.021,126.654 52.107 C 127.427 53.194,128.739 55.048,129.571 56.228 C 130.403 57.407,131.519 58.982,132.051 59.728 C 132.583 60.473,133.196 61.346,133.413 61.667 C 133.630 61.987,134.292 62.925,134.885 63.750 C 135.477 64.575,135.929 65.306,135.888 65.375 C 135.847 65.444,134.520 65.500,132.939 65.500 L 130.064 65.500 129.503 64.708 C 129.194 64.273,128.154 62.792,127.191 61.417 C 126.229 60.042,125.176 58.542,124.852 58.083 C 124.528 57.625,123.998 56.868,123.673 56.401 C 123.349 55.933,122.333 54.484,121.417 53.179 C 120.500 51.875,119.563 50.532,119.333 50.195 C 118.935 49.609,117.822 48.026,115.295 44.451 L 114.141 42.819 113.621 43.534 C 113.335 43.928,112.081 45.712,110.835 47.500 C 109.589 49.288,108.277 51.163,107.919 51.667 C 106.624 53.493,105.260 55.436,104.642 56.333 C 104.295 56.837,103.723 57.663,103.370 58.167 C 103.018 58.671,101.762 60.471,100.581 62.167 C 97.982 65.897,98.607 65.494,95.403 65.497 C 92.183 65.501,92.305 65.592,93.430 64.023 C 94.358 62.729,95.879 60.588,96.333 59.934 C 96.471 59.736,97.146 58.801,97.833 57.855 C 98.521 56.909,99.308 55.813,99.583 55.419 C 100.650 53.890,101.909 52.126,104.163 49.000 C 105.453 47.212,107.147 44.850,107.928 43.750 C 108.709 42.650,109.758 41.188,110.260 40.500 C 110.762 39.813,111.212 39.167,111.262 39.065 C 111.311 38.963,110.896 38.251,110.339 37.482 C 109.782 36.713,108.654 35.146,107.831 34.000 C 107.009 32.854,105.660 30.979,104.833 29.833 C 104.007 28.688,102.657 26.813,101.833 25.667 C 101.010 24.521,99.659 22.646,98.832 21.500 C 98.005 20.354,97.007 18.967,96.613 18.417 C 96.219 17.867,95.508 16.873,95.032 16.208 L 94.168 15.000 97.057 15.000 L 99.946 15.000 102.500 18.625 M149.870 15.708 C 150.022 16.098,150.608 17.467,151.173 18.750 C 152.541 21.857,153.771 24.691,154.282 25.917 C 154.511 26.467,154.888 27.329,155.120 27.833 C 155.351 28.337,155.799 29.350,156.116 30.083 C 156.975 32.071,158.109 34.688,159.002 36.750 C 159.440 37.758,160.070 39.221,160.403 40.000 C 160.736 40.779,161.120 41.642,161.256 41.917 C 161.391 42.192,161.772 43.054,162.102 43.833 C 162.433 44.612,163.076 46.112,163.533 47.167 C 163.989 48.221,164.542 49.510,164.762 50.031 C 164.981 50.552,165.395 51.489,165.682 52.114 C 165.968 52.739,166.338 53.587,166.504 54.000 C 167.798 57.219,167.803 57.221,168.718 55.000 C 169.039 54.221,169.728 52.608,170.249 51.417 C 170.770 50.225,171.519 48.500,171.915 47.583 C 172.310 46.667,172.948 45.204,173.332 44.333 C 173.716 43.462,174.352 42.000,174.746 41.083 C 175.140 40.167,175.838 38.554,176.297 37.500 C 176.755 36.446,177.403 34.946,177.736 34.167 C 178.070 33.387,178.453 32.525,178.589 32.250 C 178.725 31.975,179.106 31.113,179.436 30.333 C 179.996 29.012,180.444 27.971,182.379 23.500 C 182.796 22.537,183.396 21.150,183.712 20.417 C 184.029 19.683,184.511 18.596,184.784 18.000 C 185.057 17.404,185.451 16.485,185.660 15.958 L 186.039 15.000 189.520 15.000 L 193.001 15.000 192.959 40.208 L 192.917 65.417 190.542 65.463 L 188.167 65.509 188.167 43.421 C 188.167 31.273,188.110 21.335,188.042 21.338 C 187.973 21.340,187.682 21.921,187.396 22.629 C 187.110 23.337,186.501 24.779,186.044 25.833 C 185.053 28.114,183.914 30.746,183.121 32.584 C 182.805 33.317,182.390 34.261,182.198 34.680 C 182.007 35.100,181.705 35.812,181.527 36.263 C 181.348 36.714,181.001 37.523,180.754 38.061 C 180.278 39.100,179.538 40.804,178.500 43.250 C 178.150 44.075,177.437 45.725,176.915 46.917 C 176.393 48.108,175.682 49.758,175.333 50.583 C 174.985 51.408,174.384 52.796,173.997 53.667 C 173.214 55.432,171.966 58.310,171.000 60.583 C 170.649 61.408,170.031 62.833,169.626 63.750 L 168.891 65.417 167.752 65.417 L 166.613 65.417 166.123 64.250 C 165.452 62.654,164.050 59.441,163.553 58.362 C 163.164 57.515,162.673 56.393,161.390 53.417 C 161.074 52.683,160.674 51.783,160.500 51.417 C 160.180 50.742,159.479 49.129,158.417 46.625 C 158.096 45.869,157.760 45.123,157.671 44.967 C 157.581 44.811,157.212 43.986,156.850 43.134 C 156.489 42.281,155.842 40.796,155.413 39.833 C 154.983 38.871,154.274 37.258,153.836 36.250 C 153.398 35.242,152.610 33.442,152.085 32.250 C 151.559 31.058,150.920 29.596,150.663 29.000 C 150.407 28.404,149.810 27.054,149.336 26.000 C 148.863 24.946,148.200 23.417,147.863 22.603 L 147.250 21.122 147.208 43.316 L 147.165 65.509 144.791 65.463 L 142.417 65.417 142.374 40.208 L 142.332 15.000 145.964 15.000 L 149.595 15.000 149.870 15.708 M281.191 15.173 C 288.885 15.945,295.429 19.382,299.142 24.602 C 306.372 34.766,305.312 50.184,296.816 58.450 C 293.379 61.793,288.687 64.064,283.500 64.893 C 279.897 65.469,278.755 65.517,269.917 65.467 L 261.083 65.417 261.041 40.208 L 260.999 15.000 270.232 15.000 C 275.399 15.000,280.225 15.076,281.191 15.173 M335.098 15.625 C 335.234 15.969,335.487 16.550,335.660 16.917 C 335.834 17.283,336.202 18.146,336.478 18.833 C 336.755 19.521,337.367 20.983,337.839 22.083 C 338.311 23.183,338.955 24.721,339.270 25.500 C 339.586 26.279,339.986 27.217,340.161 27.583 C 340.336 27.950,340.701 28.813,340.973 29.500 C 341.246 30.188,341.856 31.650,342.330 32.750 C 342.803 33.850,343.519 35.537,343.919 36.500 C 344.599 38.137,345.227 39.628,346.865 43.500 C 347.233 44.371,347.896 45.946,348.338 47.000 C 348.779 48.054,349.491 49.742,349.919 50.750 C 350.346 51.758,351.057 53.446,351.497 54.500 C 352.616 57.176,353.502 59.277,354.415 61.417 C 355.798 64.657,356.000 65.157,356.000 65.330 C 356.000 65.438,355.035 65.500,353.336 65.500 L 350.671 65.500 350.403 64.875 C 350.256 64.531,349.720 63.237,349.213 62.000 C 348.705 60.762,347.996 59.038,347.635 58.167 C 347.275 57.296,346.715 55.908,346.390 55.083 C 346.066 54.258,345.656 53.265,345.479 52.875 L 345.158 52.167 331.859 52.167 L 318.559 52.167 318.121 53.208 C 317.461 54.780,316.294 57.514,315.331 59.750 C 314.857 60.850,314.206 62.387,313.884 63.167 C 313.562 63.946,313.192 64.790,313.062 65.042 L 312.825 65.500 310.440 65.500 C 309.129 65.500,308.014 65.459,307.964 65.409 C 307.877 65.321,308.661 63.391,310.162 60.000 C 310.810 58.535,311.390 57.200,312.879 53.750 C 313.195 53.016,313.625 52.041,313.833 51.583 C 314.042 51.125,314.473 50.150,314.791 49.417 C 315.109 48.683,315.728 47.258,316.167 46.250 C 316.605 45.242,317.240 43.779,317.577 43.000 C 317.915 42.221,318.293 41.358,318.418 41.083 C 318.674 40.522,320.200 37.029,320.967 35.250 C 321.244 34.608,321.785 33.371,322.171 32.500 C 322.856 30.953,323.692 29.030,325.213 25.500 C 325.628 24.537,326.319 22.962,326.748 22.000 C 327.178 21.037,327.814 19.575,328.163 18.750 C 328.511 17.925,329.030 16.744,329.317 16.125 L 329.837 15.000 332.343 15.000 L 334.850 15.000 335.098 15.625 M368.000 38.000 L 368.000 61.000 379.755 61.000 L 391.510 61.000 391.463 63.208 L 391.417 65.417 377.292 65.459 L 363.167 65.502 363.167 40.251 L 363.167 15.000 365.583 15.000 L 368.000 15.000 368.000 38.000 M227.333 16.248 C 227.333 16.292,228.432 18.148,229.775 20.373 C 231.118 22.597,232.456 24.829,232.748 25.333 C 233.040 25.837,233.690 26.925,234.192 27.750 C 234.694 28.575,235.619 30.113,236.248 31.167 C 236.878 32.221,237.632 33.458,237.924 33.917 C 238.217 34.375,238.619 35.050,238.817 35.417 C 239.016 35.783,239.870 37.216,240.714 38.600 C 241.559 39.984,243.900 43.856,245.917 47.205 L 249.583 53.293 249.629 41.022 C 249.665 31.232,249.631 28.723,249.462 28.618 C 249.345 28.546,248.425 28.029,247.417 27.470 C 246.408 26.912,245.096 26.175,244.500 25.833 C 243.904 25.491,242.833 24.882,242.119 24.481 C 241.406 24.079,240.356 23.483,239.786 23.157 C 239.216 22.831,238.075 22.185,237.250 21.721 C 232.476 19.035,228.985 17.057,228.289 16.641 C 227.489 16.163,227.333 16.099,227.333 16.248 M223.657 17.282 C 221.629 18.459,217.181 21.091,216.667 21.417 C 216.346 21.621,214.208 22.898,211.917 24.254 C 206.919 27.212,207.355 26.850,207.867 27.619 C 208.098 27.966,208.687 28.925,209.176 29.750 C 209.665 30.575,210.677 32.262,211.425 33.500 C 212.173 34.737,213.931 37.662,215.331 40.000 C 216.730 42.337,218.155 44.700,218.496 45.250 C 218.838 45.800,219.608 47.075,220.208 48.083 C 220.808 49.092,222.368 51.679,223.673 53.833 C 224.979 55.987,226.288 58.163,226.584 58.667 C 227.130 59.599,227.841 60.784,228.934 62.583 C 229.268 63.133,229.780 63.978,230.071 64.461 L 230.601 65.339 233.009 63.903 C 234.333 63.114,236.092 62.069,236.917 61.581 C 237.742 61.094,239.729 59.913,241.333 58.957 C 242.938 58.001,244.981 56.790,245.875 56.266 C 246.769 55.742,247.500 55.243,247.500 55.156 C 247.500 55.069,246.169 52.790,244.542 50.091 C 242.915 47.392,241.350 44.786,241.065 44.300 C 240.779 43.814,238.773 40.492,236.607 36.917 C 234.441 33.342,232.362 29.892,231.988 29.250 C 231.614 28.608,230.958 27.502,230.529 26.792 C 230.101 26.081,228.599 23.587,227.191 21.249 C 224.230 16.330,224.594 16.738,223.657 17.282 M265.833 40.182 L 265.833 61.031 272.625 60.954 C 279.521 60.875,281.380 60.728,283.478 60.094 C 283.903 59.966,284.897 59.667,285.688 59.431 C 296.102 56.322,301.223 45.875,298.275 33.750 C 296.846 27.870,291.884 22.838,285.619 20.913 C 281.472 19.639,278.659 19.333,271.059 19.333 L 265.833 19.333 265.833 40.182 M331.629 21.538 C 331.393 22.113,330.810 23.483,330.335 24.583 C 329.860 25.683,329.188 27.258,328.842 28.083 C 328.495 28.908,328.093 29.846,327.947 30.167 C 327.801 30.488,327.181 31.950,326.570 33.417 C 325.958 34.883,325.272 36.496,325.044 37.000 C 324.817 37.504,324.485 38.286,324.307 38.737 C 324.128 39.188,323.844 39.863,323.674 40.237 C 323.505 40.611,323.102 41.554,322.780 42.333 C 322.458 43.112,321.851 44.565,321.431 45.560 C 321.010 46.556,320.667 47.437,320.667 47.519 C 320.667 47.603,325.507 47.667,332.000 47.667 C 338.233 47.667,343.333 47.639,343.333 47.606 C 343.333 47.573,343.100 46.992,342.815 46.315 C 342.530 45.637,342.009 44.371,341.657 43.500 C 341.305 42.629,340.672 41.092,340.250 40.083 C 339.827 39.075,339.183 37.500,338.818 36.583 C 338.453 35.667,338.045 34.692,337.912 34.417 C 337.779 34.142,337.400 33.242,337.068 32.417 C 336.737 31.592,336.092 30.017,335.636 28.917 C 335.179 27.817,334.517 26.204,334.165 25.333 C 331.953 19.863,332.179 20.201,331.629 21.538 M204.781 28.547 C 204.539 28.730,204.527 29.266,204.663 34.083 C 204.745 37.017,204.857 41.742,204.911 44.583 C 204.965 47.425,205.051 50.658,205.103 51.768 L 205.197 53.786 205.807 54.154 C 206.142 54.357,207.167 54.959,208.083 55.491 C 209.000 56.024,210.875 57.118,212.250 57.923 C 213.625 58.727,215.350 59.736,216.083 60.164 C 216.817 60.592,218.504 61.581,219.833 62.363 C 221.162 63.144,223.000 64.220,223.917 64.753 C 224.833 65.287,226.058 66.006,226.639 66.351 C 227.605 66.926,228.167 67.034,228.167 66.645 C 228.167 66.495,221.854 55.912,217.790 49.250 C 217.510 48.792,217.040 48.004,216.746 47.500 C 216.451 46.996,215.142 44.821,213.836 42.667 C 212.531 40.512,210.972 37.925,210.373 36.917 C 209.774 35.908,209.004 34.633,208.662 34.083 C 208.320 33.533,207.426 32.054,206.676 30.795 C 205.169 28.267,205.162 28.259,204.781 28.547 " stroke="none" fill="#ffffff" fill-rule="evenodd"></path><path id="path1" d="M5.749 40.167 L 5.750 65.417 8.083 65.424 L 10.417 65.430 8.126 65.377 L 5.834 65.324 5.791 40.120 L 5.748 14.917 5.749 40.167 M38.500 25.999 L 38.500 36.998 24.458 37.042 L 10.417 37.085 24.542 37.126 L 38.667 37.167 38.667 26.083 C 38.667 19.987,38.629 15.000,38.583 15.000 C 38.537 15.000,38.500 19.950,38.500 25.999 M43.374 40.125 L 43.333 65.333 41.001 65.333 L 38.669 65.333 38.626 53.458 L 38.583 41.583 24.542 41.582 L 10.500 41.580 24.499 41.625 L 38.498 41.669 38.541 53.543 L 38.583 65.417 40.962 65.463 C 42.773 65.498,43.360 65.458,43.421 65.296 C 43.466 65.179,43.483 53.796,43.459 40.000 L 43.416 14.917 43.374 40.125 M88.065 17.167 C 88.065 18.404,88.092 18.910,88.124 18.292 C 88.156 17.673,88.156 16.660,88.124 16.042 C 88.092 15.423,88.065 15.929,88.065 17.167 M192.874 40.120 L 192.833 65.324 190.458 65.375 L 188.083 65.427 190.464 65.463 C 192.242 65.491,192.864 65.447,192.923 65.292 C 192.967 65.177,192.983 53.796,192.959 40.000 L 192.916 14.917 192.874 40.120 M290.167 17.583 C 290.396 17.714,290.658 17.822,290.750 17.822 C 290.842 17.822,290.729 17.714,290.500 17.583 C 290.271 17.452,290.008 17.345,289.917 17.345 C 289.825 17.345,289.938 17.452,290.167 17.583 M61.914 28.167 L 61.917 37.083 74.083 37.085 L 86.250 37.087 74.126 37.042 L 62.003 36.998 61.958 28.124 L 61.912 19.250 61.914 28.167 M277.375 19.448 C 277.535 19.490,277.798 19.490,277.958 19.448 C 278.119 19.406,277.987 19.372,277.667 19.372 C 277.346 19.372,277.215 19.406,277.375 19.448 M297.583 22.833 C 297.941 23.200,298.272 23.500,298.318 23.500 C 298.363 23.500,298.108 23.200,297.750 22.833 C 297.392 22.467,297.062 22.167,297.016 22.167 C 296.970 22.167,297.225 22.467,297.583 22.833 M202.012 27.069 C 201.892 27.213,201.840 27.712,201.876 28.360 L 201.936 29.417 201.968 28.325 C 201.986 27.725,202.090 27.143,202.200 27.033 C 202.310 26.923,202.357 26.833,202.304 26.833 C 202.251 26.833,202.120 26.939,202.012 27.069 M204.555 31.750 C 204.555 32.392,204.586 32.634,204.622 32.288 C 204.658 31.942,204.657 31.417,204.620 31.121 C 204.583 30.825,204.554 31.108,204.555 31.750 M202.063 36.333 C 202.063 37.387,202.090 37.819,202.123 37.292 C 202.156 36.765,202.156 35.902,202.123 35.375 C 202.090 34.848,202.063 35.279,202.063 36.333 M176.860 36.090 C 176.581 36.703,176.634 36.834,176.936 36.277 C 177.077 36.017,177.162 35.773,177.123 35.735 C 177.085 35.696,176.967 35.857,176.860 36.090 M204.730 39.417 C 204.731 40.517,204.758 40.945,204.790 40.368 C 204.823 39.792,204.823 38.892,204.790 38.368 C 204.757 37.845,204.730 38.317,204.730 39.417 M74.167 41.498 L 61.917 41.583 61.915 51.250 L 61.913 60.917 61.958 51.292 L 62.003 41.667 74.158 41.667 C 82.082 41.667,86.350 41.609,86.417 41.500 C 86.473 41.408,86.496 41.351,86.468 41.373 C 86.440 41.395,80.904 41.452,74.167 41.498 M322.194 43.424 C 321.914 44.037,321.968 44.167,322.270 43.610 C 322.411 43.350,322.495 43.106,322.457 43.068 C 322.419 43.030,322.300 43.190,322.194 43.424 M202.231 45.250 C 202.232 46.442,202.258 46.907,202.290 46.285 C 202.323 45.662,202.322 44.687,202.290 44.118 C 202.257 43.549,202.231 44.058,202.231 45.250 M204.902 46.500 C 204.902 48.104,204.927 48.760,204.957 47.958 C 204.988 47.156,204.988 45.844,204.957 45.042 C 204.927 44.240,204.902 44.896,204.902 46.500 M202.370 52.605 C 202.338 54.835,202.367 55.152,202.625 55.355 C 202.882 55.556,202.892 55.552,202.713 55.322 C 202.579 55.150,202.492 54.206,202.458 52.572 L 202.407 50.083 202.370 52.605 M205.052 52.750 C 205.053 53.300,205.084 53.505,205.121 53.205 C 205.158 52.906,205.157 52.456,205.119 52.205 C 205.081 51.955,205.051 52.200,205.052 52.750 M323.250 52.122 C 335.876 52.237,345.294 52.238,345.224 52.125 C 345.182 52.056,339.133 52.018,331.782 52.039 C 324.431 52.061,320.592 52.098,323.250 52.122 M295.740 59.375 L 295.250 59.917 295.792 59.427 C 296.297 58.971,296.410 58.833,296.281 58.833 C 296.252 58.833,296.009 59.077,295.740 59.375 M89.134 63.174 L 89.185 65.332 73.134 65.375 L 57.083 65.419 73.167 65.418 L 89.250 65.417 89.297 63.347 C 89.323 62.209,89.285 61.218,89.214 61.146 C 89.142 61.074,89.106 61.987,89.134 63.174 M309.194 62.090 C 308.914 62.703,308.968 62.834,309.270 62.277 C 309.411 62.017,309.495 61.773,309.457 61.735 C 309.419 61.696,309.300 61.857,309.194 62.090 M166.345 64.719 C 166.291 65.362,168.539 65.941,168.891 65.375 C 168.934 65.306,168.465 65.274,167.849 65.304 C 166.815 65.354,166.714 65.328,166.542 64.971 C 166.440 64.758,166.351 64.645,166.345 64.719 M135.739 65.148 C 135.833 65.301,135.162 65.337,132.863 65.299 C 131.214 65.272,129.900 65.306,129.942 65.375 C 129.985 65.444,131.323 65.500,132.917 65.500 C 135.582 65.500,136.328 65.389,135.810 65.069 C 135.686 64.992,135.660 65.021,135.739 65.148 M92.646 65.379 C 92.717 65.450,94.007 65.488,95.513 65.462 L 98.250 65.416 95.383 65.333 C 93.806 65.287,92.574 65.308,92.646 65.379 M307.942 65.375 C 307.985 65.444,309.098 65.500,310.417 65.500 C 311.735 65.500,312.848 65.444,312.891 65.375 C 312.933 65.306,311.820 65.250,310.417 65.250 C 309.013 65.250,307.900 65.306,307.942 65.375 M350.646 65.379 C 350.717 65.451,351.970 65.488,353.429 65.462 L 356.083 65.416 353.300 65.333 C 351.768 65.287,350.574 65.308,350.646 65.379 M143.625 65.457 C 144.290 65.489,145.377 65.489,146.042 65.457 C 146.706 65.425,146.162 65.400,144.833 65.400 C 143.504 65.400,142.960 65.425,143.625 65.457 M265.804 65.458 C 268.400 65.484,272.600 65.484,275.137 65.458 C 277.674 65.432,275.550 65.411,270.417 65.411 C 265.283 65.411,263.207 65.432,265.804 65.458 M370.221 65.458 C 374.146 65.483,380.521 65.483,384.387 65.458 C 388.254 65.433,385.042 65.413,377.250 65.413 C 369.458 65.413,366.295 65.433,370.221 65.458 " stroke="none" fill="#ffffff" fill-rule="evenodd"></path><path id="path2" d="M142.415 40.167 C 142.415 54.054,142.434 59.735,142.458 52.792 C 142.482 45.848,142.482 34.485,142.458 27.542 C 142.434 20.598,142.415 26.279,142.415 40.167 M261.081 40.167 C 261.081 54.054,261.101 59.735,261.125 52.792 C 261.149 45.848,261.149 34.485,261.125 27.542 C 261.101 20.598,261.081 26.279,261.081 40.167 M278.794 15.118 C 279.001 15.158,279.301 15.156,279.460 15.115 C 279.620 15.073,279.450 15.040,279.083 15.042 C 278.717 15.044,278.586 15.078,278.794 15.118 M363.248 40.167 C 363.248 54.054,363.268 59.735,363.292 52.792 C 363.316 45.848,363.316 34.485,363.292 27.542 C 363.268 20.598,363.248 26.279,363.248 40.167 M252.167 41.450 C 252.121 49.260,252.140 55.593,252.209 55.524 C 252.279 55.455,252.316 49.065,252.293 41.324 L 252.250 27.250 252.167 41.450 M249.667 41.133 L 249.750 53.750 249.793 41.259 C 249.816 34.390,249.779 28.712,249.709 28.643 C 249.640 28.573,249.621 34.194,249.667 41.133 M202.064 32.583 C 202.064 33.683,202.091 34.112,202.124 33.535 C 202.156 32.959,202.156 32.059,202.123 31.535 C 202.090 31.012,202.063 31.483,202.064 32.583 M204.555 33.917 C 204.555 34.558,204.586 34.800,204.622 34.455 C 204.658 34.109,204.657 33.584,204.620 33.288 C 204.583 32.992,204.554 33.275,204.555 33.917 M17.637 37.292 C 21.517 37.317,27.817 37.317,31.637 37.292 C 35.458 37.267,32.283 37.246,24.583 37.246 C 16.883 37.246,13.758 37.267,17.637 37.292 M74.301 37.291 L 86.352 37.336 86.301 39.410 C 86.273 40.551,86.309 41.426,86.381 41.353 C 86.452 41.281,86.490 40.329,86.464 39.236 L 86.417 37.250 74.333 37.248 L 62.250 37.247 74.301 37.291 M202.231 41.083 C 202.232 42.275,202.258 42.741,202.290 42.118 C 202.323 41.496,202.322 40.521,202.290 39.951 C 202.257 39.382,202.231 39.892,202.231 41.083 M303.883 40.167 C 303.883 40.671,303.915 40.877,303.953 40.625 C 303.991 40.373,303.991 39.960,303.953 39.708 C 303.915 39.456,303.883 39.662,303.883 40.167 M204.724 42.583 C 204.724 43.317,204.754 43.596,204.789 43.204 C 204.824 42.812,204.824 42.212,204.788 41.871 C 204.752 41.529,204.723 41.850,204.724 42.583 M202.395 48.500 C 202.395 49.462,202.423 49.856,202.456 49.375 C 202.490 48.894,202.490 48.106,202.456 47.625 C 202.423 47.144,202.395 47.538,202.395 48.500 M331.917 47.667 L 320.417 47.753 331.865 47.793 C 339.361 47.820,343.349 47.776,343.417 47.667 C 343.473 47.575,343.496 47.518,343.468 47.540 C 343.440 47.562,338.242 47.619,331.917 47.667 M204.893 50.833 C 204.893 51.704,204.922 52.060,204.956 51.625 C 204.990 51.190,204.990 50.477,204.956 50.042 C 204.922 49.606,204.893 49.962,204.893 50.833 M293.667 54.750 C 293.262 55.163,292.968 55.500,293.014 55.500 C 293.060 55.500,293.428 55.163,293.833 54.750 C 294.238 54.337,294.532 54.000,294.486 54.000 C 294.440 54.000,294.072 54.337,293.667 54.750 M296.909 58.208 L 296.250 58.917 296.958 58.258 C 297.348 57.895,297.667 57.577,297.667 57.550 C 297.667 57.423,297.522 57.550,296.909 58.208 M68.708 61.125 C 72.444 61.150,78.556 61.150,82.292 61.125 C 86.027 61.100,82.971 61.079,75.500 61.079 C 68.029 61.079,64.973 61.100,68.708 61.125 M268.625 61.125 C 270.206 61.152,272.794 61.152,274.375 61.125 C 275.956 61.097,274.662 61.075,271.500 61.075 C 268.337 61.075,267.044 61.097,268.625 61.125 M379.662 61.124 L 391.323 61.169 391.378 63.251 L 391.432 65.334 391.424 63.209 L 391.417 61.083 379.708 61.082 L 368.000 61.080 379.662 61.124 " stroke="none" fill="#717171" fill-rule="evenodd"></path><path id="path3" d="M10.372 26.032 C 10.351 32.145,10.390 37.182,10.458 37.224 C 10.572 37.294,10.570 29.300,10.455 18.917 C 10.430 16.717,10.393 19.918,10.372 26.032 M38.667 26.117 C 38.621 32.277,38.640 37.260,38.710 37.191 C 38.779 37.121,38.816 32.081,38.793 25.990 L 38.750 14.917 38.667 26.117 M57.248 40.167 C 57.248 54.054,57.268 59.735,57.292 52.792 C 57.316 45.848,57.316 34.485,57.292 27.542 C 57.268 20.598,57.248 26.279,57.248 40.167 M87.869 17.041 L 87.833 19.165 74.792 19.208 L 61.750 19.252 74.797 19.293 C 85.419 19.326,87.859 19.293,87.927 19.115 C 87.973 18.995,87.987 18.002,87.958 16.907 L 87.905 14.917 87.869 17.041 M277.208 15.119 C 277.460 15.158,277.873 15.158,278.125 15.119 C 278.377 15.081,278.171 15.050,277.667 15.050 C 277.162 15.050,276.956 15.081,277.208 15.119 M367.833 38.133 L 367.917 61.250 367.959 38.259 C 367.982 25.614,367.945 15.211,367.876 15.142 C 367.807 15.073,367.787 25.419,367.833 38.133 M230.833 15.241 C 230.833 15.287,231.058 15.441,231.333 15.583 C 231.608 15.726,231.833 15.804,231.833 15.759 C 231.833 15.713,231.608 15.559,231.333 15.417 C 231.058 15.274,230.833 15.196,230.833 15.241 M281.625 15.451 C 281.831 15.491,282.169 15.491,282.375 15.451 C 282.581 15.411,282.412 15.379,282.000 15.379 C 281.587 15.379,281.419 15.411,281.625 15.451 M226.833 15.861 C 226.833 15.968,226.880 16.009,226.938 15.951 C 226.995 15.894,227.258 15.958,227.521 16.094 C 227.785 16.230,228.000 16.304,228.000 16.259 C 228.000 16.171,227.084 15.667,226.925 15.667 C 226.875 15.667,226.833 15.754,226.833 15.861 M219.042 17.019 C 218.474 17.383,218.290 17.627,218.792 17.351 C 219.174 17.141,219.773 16.678,219.667 16.675 C 219.621 16.673,219.340 16.828,219.042 17.019 M185.194 17.257 C 184.914 17.870,184.968 18.001,185.270 17.444 C 185.411 17.183,185.495 16.939,185.457 16.901 C 185.419 16.863,185.300 17.023,185.194 17.257 M328.194 18.924 C 327.914 19.537,327.968 19.667,328.270 19.110 C 328.411 18.850,328.495 18.606,328.457 18.568 C 328.419 18.530,328.300 18.690,328.194 18.924 M151.012 18.917 C 151.012 19.008,151.119 19.271,151.250 19.500 C 151.381 19.729,151.488 19.842,151.488 19.750 C 151.488 19.658,151.381 19.396,151.250 19.167 C 151.119 18.938,151.012 18.825,151.012 18.917 M265.744 19.375 C 265.700 19.490,265.684 28.958,265.708 40.417 L 265.751 61.250 265.792 40.294 L 265.833 19.337 272.125 19.292 L 278.417 19.246 272.120 19.206 C 267.206 19.175,265.805 19.212,265.744 19.375 M125.167 20.000 C 124.971 20.275,124.848 20.500,124.894 20.500 C 124.940 20.500,125.138 20.275,125.333 20.000 C 125.529 19.725,125.652 19.500,125.606 19.500 C 125.560 19.500,125.362 19.725,125.167 20.000 M147.081 43.167 C 147.081 55.404,147.101 60.410,147.125 54.292 C 147.149 48.173,147.149 38.160,147.125 32.042 C 147.101 25.923,147.081 30.929,147.081 43.167 M188.248 43.167 C 188.248 55.404,188.267 60.410,188.292 54.292 C 188.316 48.173,188.316 38.160,188.292 32.042 C 188.267 25.923,188.248 30.929,188.248 43.167 M227.312 21.250 C 227.402 21.433,227.598 21.733,227.747 21.917 L 228.018 22.250 227.855 21.917 C 227.765 21.733,227.569 21.433,227.420 21.250 L 227.148 20.917 227.312 21.250 M296.917 22.333 C 297.553 22.975,298.112 23.500,298.158 23.500 C 298.204 23.500,297.720 22.975,297.083 22.333 C 296.447 21.692,295.888 21.167,295.842 21.167 C 295.796 21.167,296.280 21.692,296.917 22.333 M187.527 21.757 C 187.248 22.370,187.301 22.501,187.603 21.944 C 187.744 21.683,187.828 21.439,187.790 21.401 C 187.752 21.363,187.634 21.523,187.527 21.757 M123.667 22.167 C 123.471 22.442,123.348 22.667,123.394 22.667 C 123.440 22.667,123.638 22.442,123.833 22.167 C 124.029 21.892,124.152 21.667,124.106 21.667 C 124.060 21.667,123.862 21.892,123.667 22.167 M147.678 21.917 C 147.678 22.008,147.786 22.271,147.917 22.500 C 148.048 22.729,148.155 22.842,148.155 22.750 C 148.155 22.658,148.048 22.396,147.917 22.167 C 147.786 21.938,147.678 21.825,147.678 21.917 M326.527 22.757 C 326.248 23.370,326.301 23.501,326.603 22.944 C 326.744 22.683,326.828 22.439,326.790 22.401 C 326.752 22.363,326.634 22.523,326.527 22.757 M152.678 22.750 C 152.678 22.842,152.786 23.104,152.917 23.333 C 153.048 23.563,153.155 23.675,153.155 23.583 C 153.155 23.492,153.048 23.229,152.917 23.000 C 152.786 22.771,152.678 22.658,152.678 22.750 M330.194 24.257 C 329.914 24.870,329.968 25.001,330.270 24.444 C 330.411 24.183,330.495 23.939,330.457 23.901 C 330.419 23.863,330.300 24.023,330.194 24.257 M127.333 24.500 C 127.138 24.775,127.015 25.000,127.061 25.000 C 127.106 25.000,127.304 24.775,127.500 24.500 C 127.696 24.225,127.819 24.000,127.773 24.000 C 127.727 24.000,127.529 24.225,127.333 24.500 M247.000 24.408 C 247.000 24.454,247.225 24.608,247.500 24.750 C 247.775 24.892,248.000 24.971,248.000 24.925 C 248.000 24.879,247.775 24.726,247.500 24.583 C 247.225 24.441,247.000 24.362,247.000 24.408 M293.083 25.000 C 293.441 25.367,293.772 25.667,293.818 25.667 C 293.863 25.667,293.608 25.367,293.250 25.000 C 292.892 24.633,292.562 24.333,292.516 24.333 C 292.470 24.333,292.725 24.633,293.083 25.000 M325.360 25.424 C 325.081 26.037,325.134 26.167,325.436 25.610 C 325.577 25.350,325.662 25.106,325.623 25.068 C 325.585 25.030,325.467 25.190,325.360 25.424 M185.860 25.590 C 185.581 26.203,185.634 26.334,185.936 25.777 C 186.077 25.517,186.162 25.273,186.123 25.235 C 186.085 25.196,185.967 25.357,185.860 25.590 M202.072 27.220 C 202.025 27.341,202.009 28.185,202.036 29.095 L 202.086 30.750 202.168 28.875 C 202.249 27.019,202.236 26.792,202.072 27.220 M252.064 29.083 C 252.064 30.183,252.091 30.612,252.124 30.035 C 252.156 29.459,252.156 28.559,252.123 28.035 C 252.090 27.512,252.063 27.983,252.064 29.083 M248.500 27.908 C 248.500 27.954,248.725 28.108,249.000 28.250 C 249.275 28.392,249.500 28.471,249.500 28.425 C 249.500 28.379,249.275 28.226,249.000 28.083 C 248.725 27.941,248.500 27.862,248.500 27.908 M335.345 27.917 C 335.345 28.008,335.452 28.271,335.583 28.500 C 335.714 28.729,335.822 28.842,335.822 28.750 C 335.822 28.658,335.714 28.396,335.583 28.167 C 335.452 27.938,335.345 27.825,335.345 27.917 M104.000 28.500 C 104.196 28.775,104.394 29.000,104.439 29.000 C 104.485 29.000,104.362 28.775,104.167 28.500 C 103.971 28.225,103.773 28.000,103.727 28.000 C 103.681 28.000,103.804 28.225,104.000 28.500 M150.678 28.750 C 150.678 28.842,150.786 29.104,150.917 29.333 C 151.048 29.563,151.155 29.675,151.155 29.583 C 151.155 29.492,151.048 29.229,150.917 29.000 C 150.786 28.771,150.678 28.658,150.678 28.750 M296.583 29.333 C 296.726 29.608,296.879 29.833,296.925 29.833 C 296.971 29.833,296.892 29.608,296.750 29.333 C 296.608 29.058,296.454 28.833,296.408 28.833 C 296.362 28.833,296.441 29.058,296.583 29.333 M301.512 29.250 C 301.512 29.342,301.619 29.604,301.750 29.833 C 301.881 30.063,301.988 30.175,301.988 30.083 C 301.988 29.992,301.881 29.729,301.750 29.500 C 301.619 29.271,301.512 29.158,301.512 29.250 M327.360 30.924 C 327.081 31.537,327.134 31.667,327.436 31.110 C 327.577 30.850,327.662 30.606,327.623 30.568 C 327.585 30.530,327.467 30.690,327.360 30.924 M112.167 32.667 C 112.362 32.942,112.560 33.167,112.606 33.167 C 112.652 33.167,112.529 32.942,112.333 32.667 C 112.138 32.392,111.940 32.167,111.894 32.167 C 111.848 32.167,111.971 32.392,112.167 32.667 M182.694 32.924 C 182.414 33.537,182.468 33.667,182.770 33.110 C 182.911 32.850,182.995 32.606,182.957 32.568 C 182.919 32.530,182.800 32.690,182.694 32.924 M342.012 32.583 C 342.012 32.675,342.119 32.938,342.250 33.167 C 342.381 33.396,342.488 33.508,342.488 33.417 C 342.488 33.325,342.381 33.063,342.250 32.833 C 342.119 32.604,342.012 32.492,342.012 32.583 M202.234 36.417 C 202.234 37.883,202.260 38.461,202.291 37.700 C 202.322 36.940,202.322 35.740,202.290 35.034 C 202.259 34.328,202.234 34.950,202.234 36.417 M325.860 34.424 C 325.581 35.037,325.634 35.167,325.936 34.610 C 326.077 34.350,326.162 34.106,326.123 34.068 C 326.085 34.030,325.967 34.190,325.860 34.424 M303.200 34.583 C 303.200 34.767,303.260 35.104,303.333 35.333 C 303.439 35.663,303.467 35.681,303.467 35.417 C 303.467 35.233,303.407 34.896,303.333 34.667 C 303.228 34.337,303.200 34.319,303.200 34.583 M113.831 34.958 C 114.241 35.578,114.369 35.615,114.688 35.208 C 114.897 34.942,114.891 34.937,114.613 35.155 C 114.341 35.369,114.267 35.343,113.891 34.905 L 113.472 34.417 113.831 34.958 M204.559 36.417 C 204.559 37.242,204.587 37.600,204.622 37.213 C 204.657 36.827,204.657 36.152,204.623 35.713 C 204.588 35.275,204.560 35.592,204.559 36.417 M153.678 35.583 C 153.678 35.675,153.786 35.938,153.917 36.167 C 154.048 36.396,154.155 36.508,154.155 36.417 C 154.155 36.325,154.048 36.063,153.917 35.833 C 153.786 35.604,153.678 35.492,153.678 35.583 M338.512 35.583 C 338.512 35.675,338.619 35.938,338.750 36.167 C 338.881 36.396,338.988 36.508,338.988 36.417 C 338.988 36.325,338.881 36.063,338.750 35.833 C 338.619 35.604,338.512 35.492,338.512 35.583 M320.694 36.090 C 320.414 36.703,320.468 36.834,320.770 36.277 C 320.911 36.017,320.995 35.773,320.957 35.735 C 320.919 35.696,320.800 35.857,320.694 36.090 M176.360 37.590 C 176.081 38.203,176.134 38.334,176.436 37.777 C 176.577 37.517,176.662 37.273,176.623 37.235 C 176.585 37.196,176.467 37.357,176.360 37.590 M86.202 39.291 L 86.167 41.331 73.958 41.375 L 61.750 41.419 73.964 41.459 C 83.913 41.492,86.193 41.459,86.261 41.281 C 86.307 41.161,86.321 40.205,86.291 39.156 L 86.238 37.250 86.202 39.291 M237.645 38.417 C 237.735 38.600,237.931 38.900,238.080 39.083 L 238.352 39.417 238.188 39.083 C 238.098 38.900,237.902 38.600,237.753 38.417 L 237.482 38.083 237.645 38.417 M214.312 38.750 C 214.402 38.933,214.598 39.233,214.747 39.417 L 215.018 39.750 214.855 39.417 C 214.765 39.233,214.569 38.933,214.420 38.750 L 214.148 38.417 214.312 38.750 M180.027 39.090 C 179.748 39.703,179.801 39.834,180.103 39.277 C 180.244 39.017,180.328 38.773,180.290 38.735 C 180.252 38.696,180.134 38.857,180.027 39.090 M299.225 40.167 C 299.225 40.946,299.254 41.265,299.289 40.875 C 299.324 40.485,299.324 39.848,299.289 39.458 C 299.254 39.069,299.225 39.387,299.225 40.167 M319.027 39.924 C 318.748 40.537,318.801 40.667,319.103 40.110 C 319.244 39.850,319.328 39.606,319.290 39.568 C 319.252 39.530,319.134 39.690,319.027 39.924 M345.178 40.083 C 345.178 40.175,345.286 40.438,345.417 40.667 C 345.548 40.896,345.655 41.008,345.655 40.917 C 345.655 40.825,345.548 40.563,345.417 40.333 C 345.286 40.104,345.178 39.992,345.178 40.083 M174.694 41.424 C 174.414 42.037,174.468 42.167,174.770 41.610 C 174.911 41.350,174.995 41.106,174.957 41.068 C 174.919 41.030,174.800 41.190,174.694 41.424 M24.582 41.458 L 38.664 41.502 38.709 53.376 L 38.753 65.250 38.752 53.333 L 38.750 41.417 24.625 41.415 L 10.500 41.414 24.582 41.458 M10.412 53.500 C 10.412 60.054,10.433 62.735,10.458 59.458 C 10.484 56.181,10.484 50.819,10.458 47.542 C 10.433 44.265,10.412 46.946,10.412 53.500 M156.678 42.417 C 156.678 42.508,156.786 42.771,156.917 43.000 C 157.048 43.229,157.155 43.342,157.155 43.250 C 157.155 43.158,157.048 42.896,156.917 42.667 C 156.786 42.438,156.678 42.325,156.678 42.417 M178.360 42.924 C 178.081 43.537,178.134 43.667,178.436 43.110 C 178.577 42.850,178.662 42.606,178.623 42.568 C 178.585 42.530,178.467 42.690,178.360 42.924 M202.398 44.750 C 202.398 45.942,202.425 46.407,202.457 45.785 C 202.489 45.162,202.489 44.187,202.457 43.618 C 202.424 43.049,202.398 43.558,202.398 44.750 M161.512 43.083 C 161.512 43.175,161.619 43.438,161.750 43.667 C 161.881 43.896,161.988 44.008,161.988 43.917 C 161.988 43.825,161.881 43.563,161.750 43.333 C 161.619 43.104,161.512 42.992,161.512 43.083 M346.512 43.250 C 346.512 43.342,346.619 43.604,346.750 43.833 C 346.881 44.063,346.988 44.175,346.988 44.083 C 346.988 43.992,346.881 43.729,346.750 43.500 C 346.619 43.271,346.512 43.158,346.512 43.250 M204.728 45.417 C 204.728 46.333,204.756 46.687,204.790 46.203 C 204.824 45.718,204.823 44.968,204.789 44.536 C 204.755 44.104,204.727 44.500,204.728 45.417 M107.073 45.112 C 106.816 45.448,106.691 45.671,106.795 45.607 C 107.009 45.475,107.730 44.500,107.614 44.500 C 107.573 44.500,107.330 44.775,107.073 45.112 M121.333 45.000 C 121.529 45.275,121.727 45.500,121.773 45.500 C 121.819 45.500,121.696 45.275,121.500 45.000 C 121.304 44.725,121.106 44.500,121.061 44.500 C 121.015 44.500,121.138 44.725,121.333 45.000 M116.167 45.500 C 116.362 45.775,116.560 46.000,116.606 46.000 C 116.652 46.000,116.529 45.775,116.333 45.500 C 116.138 45.225,115.940 45.000,115.894 45.000 C 115.848 45.000,115.971 45.225,116.167 45.500 M321.194 45.424 C 320.914 46.037,320.968 46.167,321.270 45.610 C 321.411 45.350,321.495 45.106,321.457 45.068 C 321.419 45.030,321.300 45.190,321.194 45.424 M158.012 45.417 C 158.012 45.508,158.119 45.771,158.250 46.000 C 158.381 46.229,158.488 46.342,158.488 46.250 C 158.488 46.158,158.381 45.896,158.250 45.667 C 158.119 45.438,158.012 45.325,158.012 45.417 M303.093 46.093 C 303.030 46.427,303.012 46.734,303.053 46.775 C 303.093 46.816,303.178 46.575,303.241 46.241 C 303.303 45.906,303.321 45.599,303.281 45.559 C 303.240 45.518,303.155 45.758,303.093 46.093 M176.860 46.424 C 176.581 47.037,176.634 47.167,176.936 46.610 C 177.077 46.350,177.162 46.106,177.123 46.068 C 177.085 46.030,176.967 46.190,176.860 46.424 M316.194 46.424 C 315.914 47.037,315.968 47.167,316.270 46.610 C 316.411 46.350,316.495 46.106,316.457 46.068 C 316.419 46.030,316.300 46.190,316.194 46.424 M342.845 46.083 C 342.845 46.175,342.952 46.438,343.083 46.667 C 343.214 46.896,343.322 47.008,343.322 46.917 C 343.322 46.825,343.214 46.563,343.083 46.333 C 342.952 46.104,342.845 45.992,342.845 46.083 M163.178 46.917 C 163.178 47.008,163.286 47.271,163.417 47.500 C 163.548 47.729,163.655 47.842,163.655 47.750 C 163.655 47.658,163.548 47.396,163.417 47.167 C 163.286 46.938,163.178 46.825,163.178 46.917 M171.860 47.924 C 171.581 48.537,171.634 48.667,171.936 48.110 C 172.077 47.850,172.162 47.606,172.123 47.568 C 172.085 47.530,171.967 47.690,171.860 47.924 M124.167 49.000 C 124.362 49.275,124.560 49.500,124.606 49.500 C 124.652 49.500,124.529 49.275,124.333 49.000 C 124.138 48.725,123.940 48.500,123.894 48.500 C 123.848 48.500,123.971 48.725,124.167 49.000 M159.678 49.250 C 159.678 49.342,159.786 49.604,159.917 49.833 C 160.048 50.063,160.155 50.175,160.155 50.083 C 160.155 49.992,160.048 49.729,159.917 49.500 C 159.786 49.271,159.678 49.158,159.678 49.250 M218.218 49.750 C 218.359 50.025,218.599 50.400,218.752 50.583 C 218.904 50.767,218.860 50.617,218.654 50.250 C 218.200 49.441,217.860 49.051,218.218 49.750 M175.194 50.257 C 174.914 50.870,174.968 51.001,175.270 50.444 C 175.411 50.183,175.495 49.939,175.457 49.901 C 175.419 49.863,175.300 50.023,175.194 50.257 M102.500 51.500 C 102.304 51.775,102.181 52.000,102.227 52.000 C 102.273 52.000,102.471 51.775,102.667 51.500 C 102.862 51.225,102.985 51.000,102.939 51.000 C 102.894 51.000,102.696 51.225,102.500 51.500 M107.500 51.833 C 107.304 52.108,107.181 52.333,107.227 52.333 C 107.273 52.333,107.471 52.108,107.667 51.833 C 107.862 51.558,107.985 51.333,107.939 51.333 C 107.894 51.333,107.696 51.558,107.500 51.833 M170.194 51.757 C 169.914 52.370,169.968 52.501,170.270 51.944 C 170.411 51.683,170.495 51.439,170.457 51.401 C 170.419 51.363,170.300 51.523,170.194 51.757 M202.562 53.333 C 202.562 54.296,202.589 54.690,202.623 54.208 C 202.657 53.727,202.657 52.940,202.623 52.458 C 202.589 51.977,202.562 52.371,202.562 53.333 M318.442 51.958 C 318.372 52.072,327.966 52.070,340.583 51.955 C 343.242 51.931,339.365 51.894,331.968 51.872 C 324.571 51.851,318.485 51.890,318.442 51.958 M161.012 52.250 C 161.012 52.342,161.119 52.604,161.250 52.833 C 161.381 53.063,161.488 53.175,161.488 53.083 C 161.488 52.992,161.381 52.729,161.250 52.500 C 161.119 52.271,161.012 52.158,161.012 52.250 M204.853 53.032 C 204.842 53.462,204.893 53.850,204.965 53.895 C 205.038 53.940,205.071 53.701,205.039 53.363 C 204.941 52.333,204.873 52.211,204.853 53.032 M351.012 53.917 C 351.012 54.008,351.119 54.271,351.250 54.500 C 351.381 54.729,351.488 54.842,351.488 54.750 C 351.488 54.658,351.381 54.396,351.250 54.167 C 351.119 53.938,351.012 53.825,351.012 53.917 M104.833 55.667 C 104.638 55.942,104.515 56.167,104.561 56.167 C 104.606 56.167,104.804 55.942,105.000 55.667 C 105.196 55.392,105.319 55.167,105.273 55.167 C 105.227 55.167,105.029 55.392,104.833 55.667 M316.694 55.924 C 316.414 56.537,316.468 56.667,316.770 56.110 C 316.911 55.850,316.995 55.606,316.957 55.568 C 316.919 55.530,316.800 55.690,316.694 55.924 M162.678 56.083 C 162.678 56.175,162.786 56.438,162.917 56.667 C 163.048 56.896,163.155 57.008,163.155 56.917 C 163.155 56.825,163.048 56.563,162.917 56.333 C 162.786 56.104,162.678 55.992,162.678 56.083 M311.527 57.090 C 311.248 57.703,311.301 57.834,311.603 57.277 C 311.744 57.017,311.828 56.773,311.790 56.735 C 311.752 56.696,311.634 56.857,311.527 57.090 M130.167 57.500 C 130.362 57.775,130.560 58.000,130.606 58.000 C 130.652 58.000,130.529 57.775,130.333 57.500 C 130.138 57.225,129.940 57.000,129.894 57.000 C 129.848 57.000,129.971 57.225,130.167 57.500 M213.833 59.075 C 213.833 59.121,214.058 59.274,214.333 59.417 C 214.608 59.559,214.833 59.638,214.833 59.592 C 214.833 59.546,214.608 59.392,214.333 59.250 C 214.058 59.108,213.833 59.029,213.833 59.075 M315.194 59.424 C 314.914 60.037,314.968 60.167,315.270 59.610 C 315.411 59.350,315.495 59.106,315.457 59.068 C 315.419 59.030,315.300 59.190,315.194 59.424 M96.667 59.667 C 96.471 59.942,96.348 60.167,96.394 60.167 C 96.440 60.167,96.638 59.942,96.833 59.667 C 97.029 59.392,97.152 59.167,97.106 59.167 C 97.060 59.167,96.862 59.392,96.667 59.667 M101.667 60.167 C 101.471 60.442,101.348 60.667,101.394 60.667 C 101.440 60.667,101.638 60.442,101.833 60.167 C 102.029 59.892,102.152 59.667,102.106 59.667 C 102.060 59.667,101.862 59.892,101.667 60.167 M170.860 60.257 C 170.581 60.870,170.634 61.001,170.936 60.444 C 171.077 60.183,171.162 59.939,171.123 59.901 C 171.085 59.863,170.967 60.023,170.860 60.257 M126.667 60.500 C 126.862 60.775,127.060 61.000,127.106 61.000 C 127.152 61.000,127.029 60.775,126.833 60.500 C 126.638 60.225,126.440 60.000,126.394 60.000 C 126.348 60.000,126.471 60.225,126.667 60.500 M279.458 60.951 C 279.665 60.991,280.002 60.991,280.208 60.951 C 280.415 60.911,280.246 60.879,279.833 60.879 C 279.421 60.879,279.252 60.911,279.458 60.951 M133.000 61.500 C 133.196 61.775,133.394 62.000,133.439 62.000 C 133.485 62.000,133.362 61.775,133.167 61.500 C 132.971 61.225,132.773 61.000,132.727 61.000 C 132.681 61.000,132.804 61.225,133.000 61.500 M277.542 61.119 C 277.794 61.158,278.206 61.158,278.458 61.119 C 278.710 61.081,278.504 61.050,278.000 61.050 C 277.496 61.050,277.290 61.081,277.542 61.119 M89.065 63.250 C 89.065 64.442,89.092 64.907,89.124 64.285 C 89.156 63.662,89.156 62.687,89.123 62.118 C 89.091 61.549,89.064 62.058,89.065 63.250 M165.678 62.917 C 165.678 63.008,165.786 63.271,165.917 63.500 C 166.048 63.729,166.155 63.842,166.155 63.750 C 166.155 63.658,166.048 63.396,165.917 63.167 C 165.786 62.938,165.678 62.825,165.678 62.917 M289.167 63.083 C 288.938 63.214,288.825 63.322,288.917 63.322 C 289.008 63.322,289.271 63.214,289.500 63.083 C 289.729 62.952,289.842 62.845,289.750 62.845 C 289.658 62.845,289.396 62.952,289.167 63.083 M308.694 63.590 C 308.414 64.203,308.468 64.334,308.770 63.777 C 308.911 63.517,308.995 63.273,308.957 63.235 C 308.919 63.196,308.800 63.357,308.694 63.590 M227.145 64.583 C 227.235 64.767,227.431 65.067,227.580 65.250 L 227.852 65.583 227.688 65.250 C 227.598 65.067,227.402 64.767,227.253 64.583 L 226.982 64.250 227.145 64.583 M284.417 64.500 C 283.968 64.614,283.959 64.628,284.333 64.630 C 284.563 64.632,284.938 64.573,285.167 64.500 C 285.727 64.321,285.122 64.321,284.417 64.500 M277.958 65.287 C 278.256 65.324,278.744 65.324,279.042 65.287 C 279.340 65.250,279.096 65.220,278.500 65.220 C 277.904 65.220,277.660 65.250,277.958 65.287 " stroke="none" fill="#000000" fill-rule="evenodd"></path><path id="path4" d="M224.910 13.636 C 222.439 15.132,219.256 17.039,217.833 17.876 C 215.609 19.185,214.685 19.730,213.214 20.604 C 208.998 23.108,207.373 24.079,207.000 24.317 C 206.273 24.781,204.286 25.957,203.274 26.521 C 202.737 26.820,202.259 27.167,202.211 27.292 C 202.124 27.519,202.407 45.239,202.602 51.710 L 202.706 55.170 203.561 55.680 C 204.032 55.960,204.904 56.472,205.500 56.817 C 207.281 57.847,209.830 59.336,211.250 60.175 C 211.983 60.608,213.633 61.578,214.917 62.330 C 216.200 63.082,217.925 64.096,218.750 64.582 C 219.575 65.069,221.750 66.347,223.583 67.424 C 225.417 68.500,227.112 69.496,227.350 69.637 C 227.747 69.873,227.825 69.867,228.306 69.572 C 229.164 69.044,233.145 66.672,234.667 65.782 C 235.446 65.326,236.346 64.786,236.667 64.582 C 236.987 64.378,238.000 63.774,238.917 63.240 C 240.691 62.207,243.204 60.725,244.167 60.145 C 244.487 59.952,246.400 58.809,248.417 57.605 L 252.083 55.417 252.135 45.167 C 252.164 39.529,252.137 33.178,252.075 31.053 L 251.963 27.189 250.857 26.586 C 250.248 26.255,249.112 25.619,248.333 25.172 C 247.554 24.725,246.392 24.065,245.750 23.705 C 242.201 21.714,240.539 20.774,236.250 18.329 C 234.600 17.388,232.688 16.303,232.000 15.917 C 231.313 15.531,230.188 14.893,229.500 14.500 C 226.002 12.500,226.600 12.613,224.910 13.636 M5.833 40.167 L 5.833 65.333 8.083 65.333 L 10.333 65.333 10.336 53.542 C 10.337 47.056,10.398 41.656,10.471 41.541 C 10.577 41.375,13.529 41.340,24.677 41.374 L 38.750 41.417 38.793 53.375 L 38.836 65.333 41.084 65.333 L 43.333 65.333 43.333 40.430 C 43.333 26.734,43.288 15.409,43.232 15.264 C 43.147 15.042,42.788 15.000,40.983 15.000 L 38.836 15.000 38.793 26.125 L 38.750 37.250 24.583 37.250 L 10.417 37.250 10.374 26.125 L 10.331 15.000 8.082 15.000 L 5.833 15.000 5.833 40.167 M57.333 40.167 L 57.333 65.333 73.167 65.333 L 89.000 65.333 89.000 63.250 L 89.000 61.167 75.417 61.167 L 61.833 61.167 61.833 51.250 L 61.833 41.333 74.000 41.333 L 86.167 41.333 86.167 39.333 L 86.167 37.333 74.000 37.333 L 61.833 37.333 61.833 28.250 L 61.833 19.167 74.833 19.167 L 87.833 19.167 87.833 17.083 L 87.833 15.000 72.583 15.000 L 57.333 15.000 57.333 40.167 M94.500 15.082 C 94.500 15.128,95.088 15.971,95.807 16.957 C 96.525 17.943,98.190 20.250,99.505 22.083 C 100.820 23.917,102.394 26.092,103.001 26.917 C 103.609 27.742,104.419 28.867,104.802 29.417 C 105.185 29.967,105.780 30.804,106.124 31.278 C 106.468 31.751,107.313 32.912,108.000 33.857 C 108.688 34.802,109.377 35.764,109.533 35.996 C 109.689 36.227,110.221 36.977,110.715 37.662 L 111.613 38.908 110.765 40.109 C 108.666 43.081,106.887 45.575,105.496 47.500 C 104.667 48.646,103.677 50.033,103.296 50.583 C 102.915 51.133,102.073 52.306,101.426 53.190 C 100.779 54.074,99.406 55.986,98.375 57.440 C 97.344 58.894,95.676 61.233,94.667 62.639 C 93.659 64.044,92.833 65.225,92.833 65.264 C 92.833 65.302,94.021 65.333,95.473 65.333 L 98.113 65.333 100.056 62.542 C 101.124 61.006,102.976 58.362,104.171 56.667 C 105.365 54.971,106.660 53.121,107.046 52.557 C 107.674 51.641,109.789 48.619,111.799 45.766 C 112.193 45.207,112.831 44.283,113.216 43.712 C 113.601 43.141,114.004 42.672,114.112 42.670 C 114.269 42.667,115.747 44.647,117.176 46.775 C 117.308 46.973,117.942 47.872,118.583 48.775 C 119.225 49.677,119.954 50.716,120.204 51.083 C 120.453 51.450,120.978 52.205,121.371 52.761 C 121.763 53.317,122.474 54.329,122.950 55.011 C 123.427 55.692,124.190 56.775,124.646 57.417 C 125.102 58.058,126.044 59.408,126.740 60.417 C 127.436 61.425,128.479 62.925,129.058 63.750 L 130.110 65.250 132.889 65.296 C 134.416 65.321,135.667 65.290,135.667 65.228 C 135.667 65.165,135.378 64.732,135.025 64.265 C 134.108 63.053,131.522 59.409,129.750 56.833 C 129.383 56.300,128.258 54.714,127.250 53.308 C 126.242 51.901,125.229 50.472,125.000 50.131 C 124.771 49.791,123.687 48.253,122.592 46.714 C 118.458 40.905,117.292 39.244,117.216 39.051 C 117.142 38.862,117.696 37.954,118.672 36.667 C 118.915 36.346,120.605 33.983,122.429 31.417 C 124.252 28.850,125.970 26.442,126.247 26.067 C 126.524 25.691,127.035 24.978,127.383 24.483 C 127.731 23.988,128.615 22.758,129.349 21.750 C 130.082 20.742,130.807 19.729,130.958 19.500 C 131.503 18.678,133.246 16.241,133.619 15.779 C 134.227 15.027,134.151 15.000,131.442 15.000 C 129.216 15.000,128.852 15.038,128.627 15.292 C 128.406 15.541,126.451 18.321,124.143 21.667 C 123.796 22.171,123.222 22.996,122.868 23.500 C 122.515 24.004,121.856 24.946,121.404 25.594 C 119.012 29.024,117.185 31.644,116.660 32.401 C 114.144 36.022,114.426 35.861,113.348 34.302 C 112.884 33.632,112.265 32.746,111.971 32.333 C 111.025 31.003,105.908 23.773,105.404 23.054 C 103.625 20.515,100.842 16.611,100.286 15.875 L 99.626 15.000 97.063 15.000 C 95.653 15.000,94.500 15.037,94.500 15.082 M142.500 40.167 L 142.500 65.333 144.750 65.333 L 147.000 65.333 147.000 43.167 C 147.000 28.753,147.057 21.000,147.164 21.000 C 147.352 21.000,147.934 22.126,148.500 23.583 C 148.713 24.133,148.943 24.658,149.011 24.750 C 149.079 24.842,149.436 25.629,149.805 26.500 C 151.063 29.472,151.838 31.250,151.999 31.533 C 152.087 31.689,152.455 32.514,152.816 33.366 C 153.178 34.219,153.825 35.704,154.254 36.667 C 155.187 38.758,156.489 41.746,157.268 43.583 C 157.579 44.317,157.921 45.067,158.028 45.250 C 158.135 45.433,158.503 46.258,158.845 47.083 C 159.188 47.908,159.857 49.446,160.333 50.500 C 160.809 51.554,161.485 53.092,161.835 53.917 C 162.914 56.463,163.989 58.903,164.160 59.198 C 164.249 59.352,164.581 60.102,164.897 60.864 C 165.212 61.626,165.768 62.925,166.132 63.750 L 166.793 65.250 167.733 65.300 L 168.673 65.350 169.188 64.217 C 169.715 63.059,170.678 60.822,171.865 58.000 C 172.232 57.129,172.587 56.342,172.656 56.250 C 172.724 56.158,173.029 55.446,173.333 54.667 C 173.638 53.887,173.941 53.175,174.008 53.083 C 174.074 52.992,174.429 52.204,174.795 51.333 C 175.162 50.462,175.852 48.850,176.329 47.750 C 176.806 46.650,177.482 45.075,177.833 44.250 C 178.183 43.425,178.896 41.775,179.417 40.583 C 179.939 39.392,180.572 37.929,180.826 37.333 C 181.079 36.737,181.441 35.912,181.630 35.500 C 181.820 35.087,182.213 34.188,182.505 33.500 C 182.797 32.813,183.408 31.387,183.864 30.333 C 185.435 26.699,186.203 24.911,186.939 23.178 C 187.687 21.413,187.924 21.000,188.187 21.000 C 188.270 21.000,188.333 30.562,188.333 43.167 L 188.333 65.333 190.584 65.333 L 192.834 65.333 192.792 40.208 L 192.750 15.083 189.523 15.083 L 186.296 15.083 185.557 16.750 C 185.151 17.667,184.586 18.979,184.301 19.667 C 184.016 20.354,183.727 20.992,183.658 21.083 C 183.589 21.175,183.271 21.887,182.951 22.667 C 182.630 23.446,181.942 25.058,181.420 26.250 C 180.898 27.442,180.252 28.934,179.984 29.567 C 179.717 30.200,179.351 31.025,179.172 31.401 C 178.993 31.776,178.609 32.646,178.318 33.333 C 178.027 34.021,177.416 35.446,176.961 36.500 C 176.506 37.554,175.804 39.195,175.403 40.146 C 175.001 41.098,174.611 41.960,174.537 42.063 C 174.462 42.166,174.148 42.887,173.839 43.667 C 173.530 44.446,173.222 45.158,173.153 45.250 C 173.085 45.342,172.802 45.979,172.525 46.667 C 172.247 47.354,171.524 49.042,170.918 50.417 C 170.312 51.792,169.594 53.464,169.323 54.133 C 169.052 54.802,168.727 55.515,168.600 55.717 C 168.474 55.918,168.279 56.372,168.167 56.725 C 167.914 57.521,167.716 57.368,167.111 55.917 C 166.604 54.699,165.424 51.995,165.002 51.083 C 164.833 50.717,164.453 49.854,164.158 49.167 C 163.864 48.479,163.265 47.092,162.829 46.083 C 162.393 45.075,161.765 43.612,161.435 42.833 C 161.104 42.054,160.765 41.297,160.681 41.150 C 160.597 41.004,160.254 40.216,159.919 39.400 C 159.583 38.584,159.090 37.448,158.821 36.875 C 158.553 36.301,158.333 35.800,158.333 35.760 C 158.333 35.675,156.466 31.388,156.006 30.417 C 155.832 30.050,155.530 29.342,155.335 28.844 C 155.140 28.346,154.802 27.558,154.583 27.094 C 154.365 26.630,153.912 25.613,153.578 24.833 C 153.243 24.054,152.646 22.667,152.252 21.750 C 151.857 20.833,151.261 19.446,150.927 18.667 C 150.593 17.887,150.165 16.915,149.975 16.505 C 149.786 16.096,149.566 15.589,149.486 15.380 C 149.342 15.001,149.329 15.000,145.921 15.000 L 142.500 15.000 142.500 40.167 M261.167 40.167 L 261.167 65.333 268.792 65.331 C 281.840 65.327,284.837 64.966,289.833 62.801 C 295.264 60.448,299.185 56.597,301.342 51.498 C 301.633 50.812,301.929 50.175,302.001 50.083 C 302.177 49.857,302.730 47.835,303.275 45.417 C 305.373 36.124,301.415 25.066,294.167 19.968 C 288.418 15.924,283.812 15.030,268.625 15.010 L 261.167 15.000 261.167 40.167 M329.835 15.458 C 329.629 15.891,328.887 17.600,327.246 21.417 C 326.852 22.333,326.215 23.796,325.831 24.667 C 324.621 27.405,323.322 30.376,322.843 31.500 C 322.588 32.096,322.223 32.921,322.030 33.333 C 321.657 34.133,320.919 35.841,319.735 38.646 C 319.334 39.598,318.944 40.460,318.870 40.563 C 318.795 40.666,318.482 41.387,318.173 42.167 C 317.864 42.946,317.556 43.658,317.488 43.750 C 317.421 43.842,317.103 44.554,316.782 45.333 C 316.154 46.856,314.813 49.934,314.421 50.750 C 314.290 51.025,313.682 52.413,313.071 53.833 C 312.461 55.254,311.670 57.073,311.314 57.875 C 310.958 58.677,310.667 59.372,310.667 59.418 C 310.667 59.464,310.474 59.895,310.238 60.376 C 310.002 60.857,309.589 61.798,309.319 62.468 C 309.050 63.138,308.641 64.057,308.412 64.510 L 307.994 65.333 310.382 65.333 L 312.769 65.333 313.288 64.042 C 313.574 63.331,314.195 61.850,314.668 60.750 C 315.587 58.615,316.316 56.906,317.617 53.833 L 318.428 51.917 331.857 51.874 L 345.286 51.831 345.635 52.707 C 345.827 53.189,346.404 54.596,346.918 55.833 C 347.432 57.071,348.105 58.721,348.413 59.500 C 348.721 60.279,349.373 61.892,349.862 63.083 L 350.751 65.250 353.283 65.296 L 355.814 65.342 355.157 63.754 C 354.796 62.881,354.207 61.473,353.849 60.625 C 353.491 59.777,352.888 58.333,352.509 57.417 C 352.130 56.500,351.665 55.414,351.475 55.004 C 351.285 54.593,350.920 53.731,350.664 53.087 C 350.408 52.443,349.812 51.017,349.340 49.917 C 348.867 48.817,348.253 47.354,347.976 46.667 C 347.698 45.979,347.317 45.079,347.129 44.667 C 346.760 43.858,345.908 41.817,344.936 39.417 C 344.603 38.592,344.219 37.692,344.084 37.417 C 343.793 36.821,342.505 33.756,341.808 32.000 C 341.536 31.313,341.198 30.525,341.058 30.250 C 340.918 29.975,340.517 29.037,340.167 28.167 C 339.817 27.296,339.143 25.683,338.670 24.583 C 338.197 23.483,337.545 21.908,337.221 21.083 C 336.898 20.258,336.572 19.508,336.497 19.417 C 336.423 19.325,336.167 18.732,335.929 18.099 C 335.690 17.466,335.299 16.510,335.058 15.974 L 334.621 15.000 332.337 15.000 L 330.054 15.000 329.835 15.458 M363.333 40.162 L 363.333 65.333 377.333 65.333 L 391.333 65.333 391.333 63.250 L 391.333 61.167 379.584 61.167 L 367.835 61.167 367.792 38.125 L 367.750 15.083 365.542 15.037 L 363.333 14.990 363.333 40.162 M228.157 16.310 C 228.758 16.664,229.850 17.293,230.583 17.707 C 231.317 18.122,233.679 19.457,235.833 20.674 C 237.987 21.891,240.479 23.306,241.371 23.818 C 243.510 25.048,244.533 25.626,246.833 26.903 C 247.887 27.488,248.975 28.107,249.250 28.279 L 249.750 28.590 249.787 41.253 C 249.820 52.648,249.798 53.883,249.569 53.583 C 249.339 53.283,247.046 49.524,245.733 47.295 C 245.448 46.812,242.681 42.217,239.584 37.083 C 236.487 31.950,233.712 27.337,233.419 26.833 C 232.638 25.493,231.820 24.143,231.500 23.667 C 231.345 23.438,230.917 22.725,230.548 22.083 C 230.179 21.442,229.226 19.844,228.430 18.533 C 226.425 15.231,226.434 15.296,228.157 16.310 M224.989 17.208 C 225.407 17.922,226.417 19.592,227.265 20.973 C 227.640 21.584,228.438 22.908,229.038 23.917 C 231.726 28.434,233.982 32.172,234.922 33.667 C 235.124 33.987,235.543 34.687,235.853 35.221 C 236.163 35.755,236.679 36.624,237.000 37.152 C 237.321 37.679,237.911 38.668,238.311 39.347 C 238.712 40.027,239.210 40.846,239.419 41.167 C 242.950 46.592,247.853 55.246,247.532 55.487 C 247.155 55.770,246.666 56.067,244.083 57.581 C 243.167 58.118,241.892 58.871,241.250 59.253 C 240.608 59.636,238.771 60.723,237.167 61.669 C 235.563 62.614,233.987 63.554,233.667 63.758 C 230.835 65.552,230.485 65.670,230.110 64.958 C 229.953 64.660,229.470 63.833,229.037 63.120 C 228.604 62.407,227.315 60.269,226.172 58.370 C 225.030 56.471,223.861 54.542,223.575 54.083 C 222.881 52.970,222.065 51.618,221.413 50.500 C 221.119 49.996,219.930 48.008,218.770 46.083 C 216.393 42.137,215.955 41.413,213.670 37.667 C 213.363 37.162,212.783 36.188,212.381 35.500 C 211.979 34.813,210.679 32.644,209.492 30.680 C 206.998 26.555,207.078 26.834,208.208 26.205 C 209.104 25.707,211.289 24.409,212.333 23.755 C 212.654 23.554,213.667 22.950,214.583 22.413 C 218.324 20.223,219.109 19.758,219.667 19.401 C 221.321 18.343,224.253 16.667,224.448 16.667 C 224.571 16.667,224.814 16.910,224.989 17.208 M280.022 19.498 C 289.227 20.867,294.705 24.519,297.618 31.228 C 299.418 35.376,299.802 41.639,298.557 46.583 C 298.300 47.607,298.196 47.874,297.246 49.943 C 294.745 55.388,289.951 58.811,282.417 60.530 L 280.083 61.062 272.875 61.128 L 265.667 61.194 265.667 40.292 C 265.667 28.795,265.717 19.339,265.778 19.278 C 266.072 18.983,277.777 19.164,280.022 19.498 M332.449 20.625 C 332.552 20.877,332.974 21.908,333.386 22.917 C 333.798 23.925,334.450 25.500,334.836 26.417 C 335.222 27.333,335.859 28.871,336.252 29.833 C 336.644 30.796,337.353 32.521,337.827 33.667 C 338.937 36.349,340.014 38.967,340.914 41.167 C 341.942 43.681,342.464 44.932,343.015 46.195 C 343.282 46.806,343.500 47.425,343.500 47.570 C 343.500 47.808,342.370 47.833,331.917 47.833 C 325.537 47.833,320.333 47.769,320.333 47.690 C 320.333 47.541,320.694 46.669,322.168 43.250 C 322.643 42.150,323.293 40.612,323.612 39.833 C 323.932 39.054,324.335 38.117,324.509 37.750 C 324.682 37.383,325.081 36.446,325.396 35.667 C 325.711 34.887,326.358 33.350,326.832 32.250 C 327.307 31.150,327.981 29.575,328.329 28.750 C 328.677 27.925,329.315 26.425,329.745 25.417 C 330.176 24.408,330.792 22.946,331.115 22.167 C 332.046 19.917,332.122 19.829,332.449 20.625 M205.818 28.997 C 206.182 29.545,206.753 30.464,207.086 31.039 C 207.418 31.613,208.042 32.663,208.470 33.373 C 208.899 34.082,209.842 35.657,210.567 36.873 C 211.291 38.088,212.051 39.346,212.256 39.667 C 212.843 40.586,217.967 49.097,218.879 50.667 C 219.331 51.446,219.762 52.158,219.836 52.250 C 219.910 52.342,220.230 52.867,220.546 53.417 C 220.863 53.967,221.855 55.617,222.751 57.083 C 223.647 58.550,224.726 60.332,225.149 61.043 C 225.571 61.754,226.509 63.322,227.233 64.527 C 228.470 66.586,228.531 66.732,228.243 66.942 C 227.787 67.276,227.746 67.261,225.583 65.985 C 222.305 64.049,219.765 62.561,216.083 60.419 C 215.167 59.885,214.117 59.267,213.750 59.046 C 213.067 58.634,211.367 57.637,208.417 55.920 C 206.960 55.073,206.083 54.541,205.111 53.917 C 204.654 53.623,204.312 28.594,204.760 28.255 C 204.938 28.121,205.100 28.008,205.120 28.005 C 205.140 28.002,205.454 28.449,205.818 28.997 " stroke="none" fill="#000000" fill-rule="evenodd"></path></g></svg>