<?xml version="1.0"?>
<svg xmlns="http://www.w3.org/2000/svg" xmlns:xlink="http://www.w3.org/1999/xlink" version="1.1" id="Layer_1" x="0px" y="0px" viewBox="0 0 512.003 512.003" style="enable-background:new 0 0 512.003 512.003;" xml:space="preserve" width="512px" height="512px" class=""><g><circle style="fill:#57E4B2" cx="255.998" cy="255.996" r="255.996" data-original="#84CAFF" class="" data-old_color="#57e4b2"/><path style="fill:#57E4B2" d="M512.002,255.999c0-28.988-4.825-56.848-13.705-82.828l-1.111-0.695l0.768-0.277  c-0.324-0.934-0.651-1.866-0.984-2.795L388.702,61.136l-18.838-11.784l-93.408,31.683c-5.497-4.697-12.627-7.539-20.424-7.539  c-12.382,0-23.088,7.154-28.224,17.552h-26.88v4.476h-25.663c-18.189,0-45.103,14.502-45.103,45.629v140.208l-22.028,106.116  l70.33,66.35v8.824l47.6,47.6c9.823,1.144,19.81,1.752,29.94,1.752C397.386,512,512.002,397.385,512.002,255.999z" data-original="#00A6FF" class="" data-old_color="#57e4b2"/><g>
	<polygon style="fill:#171719;" points="323.729,102.866 275.874,102.866 275.874,128.389 323.729,128.389 379.281,163.878    379.281,155.487  " data-original="#171719" class=""/>
	<polygon style="fill:#171719;" points="259.537,86.772 273.361,102.761 388.702,61.136 369.863,49.352  " data-original="#171719" class=""/>
</g><polygon style="fill:#29292B;" points="149.041,281.359 139.6,278.037 130.16,281.359 108.131,387.475 171.068,387.475 " data-original="#29292B"/><path style="fill:#3C3B41;" d="M175.263,95.523c-18.189,0-45.104,14.502-45.104,45.629V281.36h18.881V141.151  c0-8.724,3.295-15.662,9.792-20.62c5.546-4.233,12.249-6.127,16.432-6.127h28.494V95.523H175.263z" data-original="#3C3B41" class=""/><path style="fill:#FF3200;" d="M275.96,152.664v-24.099h-39.859v24.099c-33.18,8.798-57.64,39.024-57.64,74.972v235.012H333.6  V227.636C333.6,191.688,309.142,161.462,275.96,152.664z" data-original="#FF3200" class=""/><path style="fill:#CA1C00;" d="M333.6,227.636c0-35.948-24.459-66.175-57.64-74.972v-24.099h-19.959v334.085h77.598V227.636H333.6z" data-original="#CA1C00" class=""/><rect x="178.457" y="274.888" style="fill:#FFE670;" width="155.134" height="88.115" data-original="#FFE670" class=""/><rect x="255.998" y="274.888" style="fill:#FFCF00;" width="77.603" height="88.115" data-original="#FFCF00" class=""/><path style="fill:#FFFFFF;" d="M256.031,73.495c-12.382,0-23.088,7.154-28.224,17.552h-26.88v27.833h26.88  c5.137,10.398,15.843,17.552,28.224,17.552c17.38,0,31.468-14.088,31.468-31.468S273.41,73.495,256.031,73.495z" data-original="#FFFFFF" class=""/><path style="fill:#C8C6CC" d="M256.031,136.431c17.38,0,31.468-14.088,31.468-31.468s-14.088-31.468-31.468-31.468  c-0.009,0-0.02,0.001-0.029,0.001v62.934C256.012,136.43,256.021,136.431,256.031,136.431z" data-original="#C8C6CC" class="active-path"/><path style="fill:#FF3200;" d="M256.031,82.062c-12.648,0-22.902,10.253-22.902,22.902s10.253,22.902,22.902,22.902  c12.648,0,22.902-10.253,22.902-22.902S268.68,82.062,256.031,82.062z M256.031,116.537c-6.392,0-11.574-5.182-11.574-11.574  c0-6.393,5.182-11.574,11.574-11.574c6.392,0,11.574,5.182,11.574,11.574C267.604,111.355,262.423,116.537,256.031,116.537z" data-original="#FF3200" class=""/><path style="fill:#CA1C00;" d="M256.031,82.062c-0.009,0-0.02,0.001-0.029,0.001v11.329c0.01,0,0.02-0.001,0.029-0.001  c6.392,0,11.574,5.182,11.574,11.574c0,6.393-5.182,11.574-11.574,11.574c-0.01,0-0.02-0.001-0.029-0.001v11.329  c0.01,0,0.02,0.001,0.029,0.001c12.648,0,22.902-10.253,22.902-22.902C278.932,92.315,268.68,82.062,256.031,82.062z" data-original="#CA1C00" class=""/></g> </svg>
