<?xml version="1.0"?>
<svg xmlns="http://www.w3.org/2000/svg" xmlns:xlink="http://www.w3.org/1999/xlink" version="1.1" id="Layer_1" x="0px" y="0px" viewBox="0 0 508 508" style="enable-background:new 0 0 508 508;" xml:space="preserve" width="512px" height="512px" class=""><g transform="matrix(-1, 1.22465e-16, -1.22465e-16, -1, 508, 508)"><circle style="fill:#69C0E8" cx="254" cy="254" r="254" data-original="#F1543F" class="active-path" data-old_color="#68CDFB"/><g>
	<path style="fill:#324A5E;" d="M395.2,303.2v31.2c-2-0.4-4-0.4-6-0.4s-4,0-6,0.4v-19.2H259.6v19.2C258,334,256,334,254,334   s-4,0-6,0.4v-19.2H124.4v19.2c-2-0.4-4-0.4-6-0.4s-4,0-6,0.4v-31.2H180v-31.6c2,0.4,4,0.4,6,0.4s4,0,6-0.4v31.6h123.6v-31.6   c2,0.4,4,0.4,6,0.4s4,0,6-0.4v31.6L395.2,303.2L395.2,303.2z" data-original="#324A5E" class=""/>
	<path style="fill:#324A5E;" d="M327.6,163.2v31.2c-2-0.4-4-0.4-6-0.4s-4,0-6,0.4v-19.2H192v19.2c-2-0.4-4-0.4-6-0.4s-4,0-6,0.4   v-31.2h67.6v-32c2,0.4,4,0.4,6,0.4s4,0,6-0.4v32H327.6z" data-original="#324A5E" class=""/>
</g><circle style="fill:#FFFFFF;" cx="254" cy="93.2" r="38.8" data-original="#FFFFFF" class=""/><circle style="fill:#FF7058;" cx="254" cy="93.2" r="20.8" data-original="#FF7058" class=""/><g>
	<circle style="fill:#FFFFFF;" cx="118.4" cy="372.8" r="38.8" data-original="#FFFFFF" class=""/>
	<circle style="fill:#FFFFFF;" cx="254" cy="372.8" r="38.8" data-original="#FFFFFF" class=""/>
	<circle style="fill:#FFFFFF;" cx="389.2" cy="372.8" r="38.8" data-original="#FFFFFF" class=""/>
</g><circle style="fill:#4CDBC4;" cx="389.2" cy="372.8" r="20.8" data-original="#4CDBC4" class=""/><circle style="fill:#FFFFFF;" cx="186" cy="233.2" r="38.8" data-original="#FFFFFF" class=""/><circle style="fill:#FFD05B;" cx="186" cy="233.2" r="20.8" data-original="#FFD05B" class=""/><circle style="fill:#FFFFFF;" cx="321.6" cy="233.2" r="38.8" data-original="#FFFFFF" class=""/><circle style="fill:#84DBFF;" cx="321.6" cy="233.2" r="20.8" data-original="#84DBFF" class=""/><circle style="fill:#2C9984;" cx="118.4" cy="372.8" r="20.8" data-original="#2C9984"/><circle style="fill:#CED5E0" cx="254" cy="372.8" r="20.8" data-original="#CED5E0" class=""/></g> </svg>
